<svg xmlns="http://www.w3.org/2000/svg" width="600" height="380" viewBox="0 0 600 380">
  <rect width="600" height="380" fill="#16161d"/>
  <!-- score field: small gradient arrows -->
  <g stroke="#4a4742" stroke-width="1.2" fill="none" opacity="0.8">
    <path d="M70 90 l16 10"/><path d="M130 70 l16 12"/><path d="M200 100 l15 -8"/>
    <path d="M90 150 l16 9"/><path d="M170 160 l14 -10"/><path d="M250 140 l15 8"/>
    <path d="M120 220 l16 -9"/><path d="M210 230 l14 11"/><path d="M70 280 l15 9"/>
    <path d="M160 300 l16 -8"/><path d="M250 290 l13 11"/><path d="M110 330 l15 -9"/>
  </g>
  <!-- graph readout -->
  <g>
    <circle cx="360" cy="130" r="22" fill="none" stroke="#fbfaf7" stroke-width="2"/>
    <circle cx="470" cy="110" r="22" fill="none" stroke="#fbfaf7" stroke-width="2"/>
    <circle cx="430" cy="240" r="22" fill="none" stroke="#026234" stroke-width="2.4"/>
    <circle cx="530" cy="250" r="22" fill="none" stroke="#026234" stroke-width="2.4"/>
    <!-- directed edge -->
    <line x1="382" y1="126" x2="446" y2="114" stroke="#fbfaf7" stroke-width="2"/>
    <path d="M438 108 L450 113 L440 120" fill="#fbfaf7"/>
    <line x1="372" y1="151" x2="418" y2="219" stroke="#fbfaf7" stroke-width="2"/>
    <path d="M408 210 L420 222 L405 220" fill="#fbfaf7"/>
    <!-- bidirected latent edge -->
    <path d="M452 240 Q480 200 508 240" fill="none" stroke="#026234" stroke-width="2.4" stroke-dasharray="5 4"/>
    <path d="M460 234 L452 241 L462 245" fill="#026234"/>
    <path d="M500 245 L508 241 L502 233" fill="#026234"/>
  </g>
</svg>
