<?xml version="1.0" standalone="no"?>
<!DOCTYPE svg PUBLIC "-//W3C//DTD SVG 20010904//EN"
 "http://www.w3.org/TR/2001/REC-SVG-20010904/DTD/svg10.dtd">
<svg version="1.0" xmlns="http://www.w3.org/2000/svg"
 width="3000.000000pt" height="1027.000000pt" viewBox="0 0 3000.000000 1027.000000"
 preserveAspectRatio="xMidYMid meet">
<metadata>
Created by potrace 1.16, written by Peter Selinger 2001-2019
</metadata>
<g transform="translate(0.000000,1027.000000) scale(0.100000,-0.100000)"
fill="#fcfbf8" stroke="none">
<path d="M19530 7900 l0 -2370 100 0 100 0 0 2370 0 2370 -100 0 -100 0 0
-2370z"/>
<path d="M2070 10019 c-174 -18 -312 -45 -475 -91 -271 -77 -567 -230 -780
-401 -65 -52 -280 -267 -332 -332 -77 -96 -210 -308 -255 -405 -53 -116 -68
-152 -68 -163 0 -7 -4 -17 -8 -22 -5 -6 -19 -44 -31 -85 -13 -41 -27 -86 -31
-100 -8 -25 -22 -82 -39 -162 -9 -42 -23 -129 -38 -238 -10 -71 -10 -419 0
-490 15 -109 29 -196 38 -237 17 -81 31 -138 39 -163 4 -14 18 -59 31 -100 12
-41 26 -79 31 -84 4 -6 8 -16 8 -23 0 -22 91 -216 138 -294 15 -25 40 -67 57
-95 105 -176 329 -420 515 -560 331 -248 717 -400 1146 -450 170 -20 534 -14
689 10 439 70 862 271 1115 530 44 46 44 46 -20 111 -35 36 -67 65 -70 65 -3
0 -23 -17 -45 -37 -367 -331 -831 -503 -1365 -503 -114 0 -321 18 -395 34 -11
2 -47 10 -80 16 -329 67 -662 229 -920 449 -138 118 -310 321 -405 476 -49 81
-134 250 -155 309 -7 23 -23 66 -34 96 -10 30 -30 98 -44 150 -23 89 -30 130
-57 301 -13 85 -13 403 0 488 28 179 34 212 55 296 13 50 33 117 45 150 12 33
26 73 30 89 19 61 132 275 194 369 298 447 754 752 1291 862 156 32 291 45
480 45 383 0 681 -66 978 -216 102 -51 271 -163 344 -228 89 -78 77 -77 144
-10 32 32 59 66 59 75 0 30 -221 204 -356 280 -84 47 -185 95 -271 130 -13 5
-33 13 -45 18 -30 13 -132 45 -188 60 -290 79 -636 109 -920 80z"/>
<path d="M5710 8859 c-216 -33 -331 -61 -480 -116 -122 -46 -275 -122 -370
-186 -95 -63 -210 -156 -210 -169 0 -6 23 -42 51 -80 51 -69 51 -69 83 -43
148 120 220 168 356 235 165 82 338 135 545 166 150 22 450 15 581 -14 324
-73 542 -260 640 -550 46 -138 55 -212 61 -484 6 -257 6 -257 -18 -262 -13 -3
-350 -7 -749 -10 -482 -2 -743 -7 -780 -15 -30 -6 -80 -16 -110 -22 -30 -6
-66 -15 -80 -19 -14 -4 -45 -13 -70 -20 -65 -19 -206 -87 -270 -131 -116 -79
-235 -227 -281 -348 -61 -162 -77 -384 -39 -553 81 -367 361 -609 807 -699
136 -27 436 -37 581 -19 330 41 591 161 791 363 91 92 115 123 173 219 22 37
44 65 49 62 5 -3 9 -146 9 -320 l0 -314 95 0 95 0 0 1148 c0 727 -4 1178 -10
1230 -56 446 -295 756 -685 887 -88 29 -136 40 -275 60 -104 16 -400 18 -490
4z m1255 -2039 c0 -355 0 -355 -38 -430 -136 -272 -290 -437 -520 -560 -278
-147 -648 -188 -1017 -111 -70 15 -138 39 -225 81 -240 117 -377 306 -406 560
-39 339 114 601 426 731 65 27 197 59 320 77 33 5 375 9 760 8 l700 -1 0 -355z"/>
<path d="M13385 8859 c-333 -47 -540 -132 -709 -290 -138 -129 -206 -252 -242
-438 -23 -123 -16 -246 24 -401 31 -120 147 -277 267 -360 37 -25 182 -101
230 -121 64 -26 244 -80 325 -98 25 -5 66 -14 93 -20 103 -24 134 -30 197 -41
36 -6 83 -15 105 -20 22 -5 67 -13 100 -20 68 -12 102 -20 230 -51 393 -94
588 -235 650 -470 16 -60 20 -240 6 -285 -5 -16 -15 -49 -22 -74 -59 -200
-247 -356 -514 -425 -159 -41 -227 -48 -485 -49 -271 -1 -307 3 -527 55 -218
52 -450 160 -627 292 -43 32 -83 56 -90 54 -6 -3 -18 -17 -26 -33 -8 -16 -27
-48 -43 -72 -29 -43 -29 -43 15 -84 174 -164 505 -303 875 -369 170 -30 510
-38 690 -15 368 47 616 157 787 348 52 58 123 178 140 238 4 14 14 50 23 80
21 74 21 313 0 390 -36 130 -79 211 -157 294 -102 108 -205 171 -400 244 -58
22 -240 75 -300 87 -19 4 -53 11 -75 16 -22 5 -60 13 -85 18 -25 5 -79 15
-120 24 -41 8 -86 17 -100 20 -608 116 -856 250 -952 514 -27 73 -37 259 -18
342 42 188 192 355 395 444 234 101 645 128 970 62 212 -43 397 -117 549 -219
38 -25 72 -46 77 -46 5 0 31 34 59 75 50 74 50 74 28 95 -63 59 -267 160 -433
215 -220 73 -432 105 -680 104 -93 -1 -197 -5 -230 -10z"/>
<path d="M16635 8854 c-233 -34 -427 -94 -630 -195 -193 -96 -411 -255 -389
-284 5 -7 28 -40 52 -74 23 -33 45 -61 48 -61 2 0 34 25 71 56 195 166 466
294 738 349 194 39 459 47 633 19 365 -58 612 -257 716 -577 42 -128 49 -195
50 -467 l1 -265 -740 -6 c-634 -5 -752 -8 -825 -23 -324 -63 -503 -151 -655
-318 -56 -62 -146 -227 -159 -293 -27 -129 -36 -192 -36 -270 -1 -368 203
-671 553 -823 96 -41 270 -86 392 -101 127 -15 381 -13 504 4 330 47 610 188
797 401 59 67 125 160 153 217 8 15 18 27 23 27 4 0 8 -144 8 -320 l0 -320
100 0 100 0 0 1123 c0 721 -4 1152 -10 1207 -38 308 -118 501 -277 670 -173
184 -379 282 -682 325 -128 18 -410 18 -536 -1z m1295 -2026 c0 -353 0 -353
-44 -445 -117 -243 -295 -436 -506 -550 -303 -162 -756 -199 -1110 -90 -261
80 -448 252 -519 477 -51 162 -42 387 22 530 91 204 289 339 582 399 123 26
210 29 873 30 l702 1 0 -352z"/>
<path d="M8510 7838 c1 -1051 4 -1169 45 -1352 55 -254 163 -460 323 -620 135
-133 277 -219 466 -281 179 -58 271 -70 541 -70 227 1 247 2 360 29 413 96
707 324 891 692 39 79 39 79 42 -313 l2 -393 100 0 100 0 0 1660 0 1660 -100
0 -100 0 0 -877 c0 -909 -6 -1103 -40 -1272 -90 -447 -346 -766 -740 -919
-150 -59 -296 -82 -515 -82 -305 0 -511 53 -704 180 -214 141 -363 366 -420
635 -6 28 -16 70 -23 95 -9 34 -13 325 -15 1143 l-4 1097 -105 0 -104 0 0
-1012z"/>
<path d="M24970 3033 c0 -698 0 -698 -26 -648 -15 28 -51 82 -80 121 -351 470
-1091 500 -1501 61 -162 -174 -245 -372 -272 -647 -8 -89 4 -281 24 -360 16
-64 28 -107 36 -127 65 -166 116 -249 223 -361 126 -133 274 -219 464 -269 85
-23 117 -26 257 -26 141 0 172 3 257 26 257 68 472 235 590 459 28 53 28 53
28 -198 0 -205 3 -254 14 -263 8 -7 37 -11 68 -9 l53 3 3 1468 2 1467 -70 0
-70 0 0 -697z m-665 -311 c17 -5 50 -16 75 -23 152 -46 309 -158 410 -293 181
-245 230 -608 124 -926 -102 -303 -344 -508 -669 -565 -302 -54 -628 65 -812
296 -144 181 -213 415 -200 672 16 311 148 559 379 715 42 29 80 52 83 52 3 0
24 8 48 19 75 33 156 56 227 65 57 7 302 -2 335 -12z"/>
<path d="M11043 3630 c-41 -24 -63 -67 -63 -121 0 -35 6 -48 39 -80 36 -36 43
-39 94 -39 49 0 60 4 90 33 46 43 58 97 31 146 -40 74 -125 101 -191 61z"/>
<path d="M142 2183 l3 -1388 875 0 875 0 3 59 c2 41 -1 62 -10 67 -7 5 -371 9
-808 9 l-795 0 -3 1320 -2 1320 -70 0 -70 0 2 -1387z"/>
<path d="M27750 3552 c-64 -32 -89 -53 -119 -99 -63 -95 -63 -211 1 -307 33
-50 47 -13 -287 -741 -108 -234 -155 -337 -220 -480 -40 -88 -87 -191 -105
-230 -32 -70 -58 -127 -104 -227 -72 -160 -62 -148 -122 -148 -98 0 -192 -61
-237 -153 -71 -146 -3 -320 149 -377 30 -11 72 -20 94 -20 58 0 147 37 189 79
109 109 110 293 2 395 -17 17 -31 33 -31 37 0 7 23 59 111 247 21 46 39 88 39
93 0 5 310 9 745 9 l745 0 27 -57 c14 -32 45 -99 68 -149 62 -132 62 -128 20
-154 -67 -42 -115 -133 -115 -220 0 -204 215 -339 395 -249 126 63 185 210
136 340 -37 99 -140 178 -232 179 -22 0 -30 10 -59 73 -19 39 -51 108 -72 151
-21 44 -38 81 -38 83 0 1 214 3 475 3 l475 0 0 -153 c0 -153 0 -153 -47 -175
-113 -51 -173 -140 -173 -256 0 -80 25 -140 83 -196 45 -45 128 -80 187 -80
59 0 147 37 189 79 60 61 81 112 81 197 0 119 -50 197 -162 253 -53 26 -53 26
-56 874 -2 847 -2 847 51 872 113 54 167 137 167 259 0 83 -21 134 -77 191
-75 76 -212 99 -308 54 -50 -24 -135 -111 -135 -139 0 -11 -4 -22 -10 -25 -5
-3 -10 -39 -10 -79 0 -119 52 -202 163 -257 52 -25 52 -25 55 -667 l2 -642
-505 0 c-296 0 -505 4 -505 9 0 8 -17 46 -121 269 -16 34 -42 90 -58 125 -16
34 -45 97 -65 140 -20 42 -52 112 -72 155 -20 42 -49 104 -64 137 -85 184
-133 288 -199 427 -47 100 -46 96 -27 117 8 9 26 39 40 67 68 135 2 304 -141
365 -58 25 -164 25 -213 1z m225 -575 c12 -29 39 -87 59 -129 20 -43 52 -113
72 -155 35 -76 62 -134 124 -269 17 -37 47 -101 67 -143 89 -191 105 -225 130
-279 14 -31 45 -99 69 -150 24 -52 44 -98 44 -103 0 -5 -282 -9 -685 -9 -377
0 -685 2 -685 4 0 2 20 46 44 98 24 51 53 116 66 143 12 28 35 77 50 110 15
33 37 80 48 105 11 25 39 86 62 135 23 50 51 110 62 135 11 25 32 70 45 100
14 30 37 80 50 110 30 66 68 148 117 252 20 43 36 82 36 87 0 15 13 16 111 13
91 -3 91 -3 114 -55z"/>
<path d="M2929 2870 c-381 -45 -696 -327 -801 -720 -37 -139 -51 -401 -28
-508 6 -26 15 -69 21 -97 10 -46 20 -80 39 -130 22 -59 97 -197 132 -242 109
-142 264 -260 426 -324 339 -132 725 -94 1011 100 77 53 171 145 171 169 0 20
-59 82 -78 82 -7 0 -28 -18 -48 -40 -140 -155 -399 -261 -635 -260 -64 1 -202
20 -269 38 -301 81 -524 306 -610 613 -27 98 -39 249 -19 249 8 0 406 0 885 0
480 0 879 3 888 6 13 5 16 22 16 91 0 46 -5 105 -10 131 -6 26 -15 70 -21 97
-38 175 -129 343 -257 473 -208 211 -499 308 -813 272z m261 -135 c194 -36
304 -90 424 -204 117 -112 189 -228 236 -376 23 -75 50 -222 42 -230 -3 -3
-379 -5 -835 -5 l-829 0 7 58 c31 263 167 498 365 631 171 115 396 163 590
126z"/>
<path d="M5145 2870 c-104 -14 -253 -54 -344 -93 -87 -38 -226 -125 -279 -175
-33 -31 -33 -31 -15 -62 10 -17 28 -41 41 -52 22 -22 22 -22 55 9 153 145 451
254 692 253 53 0 199 -23 253 -39 162 -49 277 -166 330 -336 33 -107 56 -387
36 -439 -5 -14 -55 -16 -458 -16 -364 0 -465 -3 -524 -15 -259 -54 -402 -161
-473 -355 -20 -55 -24 -83 -24 -190 0 -106 4 -135 24 -190 61 -167 207 -300
391 -354 262 -78 568 -51 788 71 78 43 188 145 239 221 38 57 38 57 43 -128 5
-185 5 -185 49 -188 25 -2 55 -1 68 3 23 5 23 5 23 684 0 765 -5 837 -63 991
-75 198 -236 331 -467 385 -81 19 -292 27 -385 15z m775 -1265 c0 -205 0 -206
-29 -269 -59 -130 -151 -242 -260 -315 -83 -55 -126 -73 -267 -110 -53 -14
-325 -14 -378 0 -97 25 -124 35 -179 62 -71 36 -154 117 -186 181 -63 129 -65
284 -5 412 39 84 163 178 273 206 116 30 199 35 609 37 l422 1 0 -205z"/>
<path d="M7681 2869 c-272 -32 -505 -179 -609 -386 -14 -29 -30 -53 -34 -53
-4 0 -8 94 -8 210 0 210 0 210 -23 215 -13 4 -43 5 -68 3 -44 -3 -44 -3 -44
-1033 l0 -1030 59 -3 c32 -2 62 1 67 5 4 4 10 289 12 633 4 657 5 673 53 818
62 188 182 333 339 409 104 49 200 73 302 73 48 0 84 5 91 12 7 7 12 38 12 69
0 75 0 75 -149 58z"/>
<path d="M9245 2874 c-242 -34 -400 -104 -544 -239 -50 -47 -139 -167 -155
-209 -17 -48 -26 15 -28 214 -3 215 -3 215 -63 215 l-60 0 0 -1030 c0 -1030 0
-1030 44 -1033 25 -2 55 -1 67 2 23 6 23 6 26 649 4 732 1 708 95 897 39 79
60 109 133 181 68 68 104 94 171 127 142 69 218 85 409 86 170 1 209 -5 320
-47 55 -21 144 -76 190 -119 74 -68 134 -177 171 -313 22 -78 23 -96 26 -767
4 -688 4 -688 27 -694 12 -3 42 -4 67 -2 44 3 44 3 47 673 2 466 -1 688 -8
730 -20 106 -33 160 -42 169 -4 6 -8 16 -8 24 0 26 -60 137 -110 204 -94 125
-241 217 -410 258 -82 19 -297 34 -365 24z"/>
<path d="M12883 2870 c-286 -41 -494 -167 -639 -390 l-49 -75 -3 222 c-2 223
-2 223 -26 229 -12 3 -40 4 -62 2 -39 -3 -39 -3 -39 -1033 0 -1030 0 -1030 44
-1033 25 -2 55 -1 68 3 23 5 23 5 23 628 0 649 1 672 44 802 67 199 199 352
377 433 143 66 197 77 389 77 169 0 210 -6 320 -48 154 -58 291 -207 341 -368
41 -132 41 -134 46 -837 5 -682 5 -682 27 -688 13 -3 42 -4 67 -2 44 3 44 3
47 653 3 653 -1 740 -33 860 -25 89 -28 97 -57 158 -127 262 -361 400 -698
412 -69 2 -153 0 -187 -5z"/>
<path d="M15385 2874 c-235 -32 -377 -86 -533 -204 -87 -65 -143 -123 -202
-210 -131 -192 -196 -453 -170 -678 10 -91 44 -248 60 -282 70 -146 100 -197
153 -263 321 -400 949 -485 1385 -188 95 65 211 192 277 302 20 34 20 34 23
-141 9 -467 -48 -699 -210 -861 -116 -116 -267 -175 -511 -200 -322 -32 -683
76 -900 268 -20 18 -43 33 -50 33 -14 0 -77 -80 -77 -97 0 -5 15 -23 33 -40
96 -91 239 -171 392 -221 84 -28 118 -36 253 -62 95 -18 417 -13 526 9 202 41
340 111 454 231 76 80 153 225 182 342 39 156 40 162 40 1212 0 571 -3 1023
-8 1028 -5 5 -33 8 -63 6 -54 -3 -54 -3 -59 -252 -5 -249 -5 -249 -34 -196
-31 57 -117 163 -176 218 -101 94 -262 179 -413 217 -96 24 -295 40 -372 29z
m325 -154 c111 -29 125 -33 205 -71 158 -74 307 -226 382 -389 102 -222 109
-486 20 -720 -58 -154 -164 -289 -298 -380 -57 -39 -157 -91 -200 -104 -168
-51 -324 -67 -445 -46 -159 28 -181 35 -300 92 -201 96 -360 291 -425 523 -20
69 -23 104 -23 250 0 146 3 181 23 250 43 154 134 302 246 402 113 101 309
188 465 207 64 8 305 -2 350 -14z"/>
<path d="M18905 2870 c-193 -23 -376 -90 -536 -196 -86 -58 -123 -97 -115
-121 4 -10 19 -33 35 -52 29 -35 29 -35 77 5 156 129 307 194 533 229 116 18
182 19 286 1 342 -57 494 -273 483 -686 l-3 -125 -480 -6 c-295 -4 -498 -10
-526 -17 -281 -67 -429 -212 -469 -460 -23 -139 12 -291 95 -409 157 -225 557
-321 923 -223 178 49 331 159 435 314 27 40 27 40 29 -145 3 -184 3 -184 47
-187 25 -2 55 -1 68 3 24 6 24 6 20 758 -4 797 -2 769 -51 910 -69 198 -247
344 -478 392 -87 19 -279 27 -373 15z m765 -1271 c0 -212 0 -212 -42 -296
-105 -210 -258 -330 -498 -389 -73 -18 -327 -18 -400 0 -137 34 -198 65 -278
140 -96 91 -147 249 -122 384 37 202 169 314 420 357 52 9 204 13 498 14 l422
1 0 -211z"/>
<path d="M21493 2870 c-214 -30 -405 -122 -534 -257 -46 -47 -139 -178 -139
-195 0 -5 -4 -6 -10 -3 -6 4 -10 88 -10 220 0 215 0 215 -23 221 -13 3 -41 4
-63 2 -39 -3 -39 -3 -39 -1033 0 -1030 0 -1030 44 -1033 25 -2 55 -1 68 3 23
5 23 5 23 618 0 640 3 685 46 813 88 261 282 433 559 495 80 19 353 19 420 0
229 -61 372 -187 440 -386 49 -142 47 -121 52 -848 5 -687 5 -687 27 -693 12
-3 42 -4 67 -2 44 3 44 3 47 668 3 710 0 750 -48 899 -81 254 -270 428 -530
491 -97 23 -302 34 -397 20z"/>
<path d="M11045 2848 c-3 -7 -4 -472 -3 -1033 3 -1020 3 -1020 47 -1023 25 -2
55 -1 68 3 23 5 23 5 23 1029 0 924 -2 1024 -16 1030 -29 11 -114 7 -119 -6z"/>
</g>
</svg>
