<?xml version="1.0" encoding="UTF-8"?>
<svg xmlns="http://www.w3.org/2000/svg" xmlns:xlink="http://www.w3.org/1999/xlink" width="432pt" height="360pt" viewBox="0 0 432 360">
<defs>
<g>
<g id="glyph-0-0">
<path d="M 8.300781 -1.386719 L 8.300781 0 L 0.496094 0 C 0.476562 -0.347656 0.542969 -0.675781 0.675781 -1.007812 C 0.875 -1.535156 1.1875 -2.046875 1.617188 -2.574219 C 2.046875 -3.085938 2.691406 -3.679688 3.515625 -4.371094 C 4.800781 -5.410156 5.660156 -6.238281 6.121094 -6.863281 C 6.566406 -7.472656 6.796875 -8.050781 6.796875 -8.613281 C 6.796875 -9.175781 6.582031 -9.667969 6.171875 -10.066406 C 5.757812 -10.460938 5.230469 -10.660156 4.570312 -10.660156 C 3.878906 -10.660156 3.316406 -10.445312 2.902344 -10.03125 C 2.476562 -9.601562 2.261719 -9.027344 2.261719 -8.28125 L 0.777344 -8.449219 C 0.875 -9.554688 1.253906 -10.394531 1.914062 -10.988281 C 2.574219 -11.566406 3.480469 -11.863281 4.601562 -11.863281 C 5.726562 -11.863281 6.632812 -11.535156 7.292969 -10.90625 C 7.953125 -10.28125 8.28125 -9.503906 8.28125 -8.578125 C 8.28125 -8.101562 8.183594 -7.640625 7.984375 -7.175781 C 7.789062 -6.714844 7.472656 -6.238281 7.027344 -5.742188 C 6.582031 -5.230469 5.839844 -4.539062 4.800781 -3.664062 C 3.925781 -2.9375 3.367188 -2.441406 3.117188 -2.179688 C 2.871094 -1.914062 2.671875 -1.648438 2.507812 -1.386719 Z M 8.300781 -1.386719 "/>
</g>
<g id="glyph-0-1">
<path d="M 5.328125 0 L 5.328125 -2.820312 L 0.214844 -2.820312 L 0.214844 -4.15625 L 5.59375 -11.8125 L 6.78125 -11.8125 L 6.78125 -4.15625 L 8.382812 -4.15625 L 8.382812 -2.820312 L 6.78125 -2.820312 L 6.78125 0 Z M 5.328125 -4.15625 L 5.328125 -9.488281 L 1.632812 -4.15625 Z M 5.328125 -4.15625 "/>
</g>
<g id="glyph-0-2">
<path d="M 8.21875 -8.925781 L 6.765625 -8.8125 C 6.632812 -9.371094 6.453125 -9.785156 6.21875 -10.046875 C 5.824219 -10.445312 5.328125 -10.660156 4.769531 -10.660156 C 4.304688 -10.660156 3.894531 -10.527344 3.546875 -10.28125 C 3.085938 -9.949219 2.738281 -9.453125 2.476562 -8.828125 C 2.210938 -8.183594 2.0625 -7.277344 2.0625 -6.089844 C 2.410156 -6.617188 2.839844 -6.996094 3.347656 -7.261719 C 3.84375 -7.523438 4.371094 -7.65625 4.933594 -7.65625 C 5.890625 -7.65625 6.714844 -7.292969 7.390625 -6.582031 C 8.070312 -5.875 8.414062 -4.949219 8.414062 -3.828125 C 8.414062 -3.085938 8.25 -2.390625 7.9375 -1.765625 C 7.605469 -1.121094 7.175781 -0.644531 6.617188 -0.3125 C 6.054688 0.015625 5.429688 0.179688 4.71875 0.179688 C 3.496094 0.179688 2.523438 -0.246094 1.765625 -1.136719 C 1.007812 -2.011719 0.628906 -3.480469 0.628906 -5.527344 C 0.628906 -7.804688 1.039062 -9.453125 1.882812 -10.511719 C 2.605469 -11.402344 3.597656 -11.863281 4.851562 -11.863281 C 5.773438 -11.863281 6.550781 -11.597656 7.144531 -11.070312 C 7.738281 -10.542969 8.085938 -9.835938 8.21875 -8.925781 Z M 2.292969 -3.828125 C 2.292969 -3.332031 2.390625 -2.855469 2.605469 -2.390625 C 2.804688 -1.929688 3.101562 -1.585938 3.496094 -1.351562 C 3.878906 -1.105469 4.273438 -0.988281 4.703125 -0.988281 C 5.296875 -0.988281 5.824219 -1.238281 6.269531 -1.734375 C 6.699219 -2.226562 6.929688 -2.886719 6.929688 -3.746094 C 6.929688 -4.554688 6.699219 -5.199219 6.269531 -5.675781 C 5.839844 -6.136719 5.296875 -6.386719 4.636719 -6.386719 C 3.976562 -6.386719 3.433594 -6.136719 2.96875 -5.675781 C 2.507812 -5.199219 2.292969 -4.585938 2.292969 -3.828125 Z M 2.292969 -3.828125 "/>
</g>
<g id="glyph-0-3">
<path d="M 2.921875 -6.402344 C 2.308594 -6.617188 1.863281 -6.929688 1.566406 -7.34375 C 1.269531 -7.738281 1.136719 -8.234375 1.136719 -8.8125 C 1.136719 -9.667969 1.433594 -10.378906 2.0625 -10.972656 C 2.691406 -11.566406 3.515625 -11.863281 4.539062 -11.863281 C 5.558594 -11.863281 6.402344 -11.550781 7.027344 -10.957031 C 7.65625 -10.363281 7.96875 -9.636719 7.96875 -8.777344 C 7.96875 -8.21875 7.820312 -7.738281 7.539062 -7.34375 C 7.242188 -6.929688 6.816406 -6.617188 6.21875 -6.402344 C 6.945312 -6.171875 7.492188 -5.792969 7.871094 -5.261719 C 8.25 -4.734375 8.449219 -4.109375 8.449219 -3.382812 C 8.449219 -2.359375 8.085938 -1.519531 7.375 -0.839844 C 6.648438 -0.148438 5.710938 0.179688 4.554688 0.179688 C 3.382812 0.179688 2.441406 -0.148438 1.734375 -0.839844 C 1.023438 -1.519531 0.675781 -2.375 0.675781 -3.414062 C 0.675781 -4.175781 0.859375 -4.816406 1.253906 -5.347656 C 1.632812 -5.859375 2.195312 -6.203125 2.921875 -6.402344 Z M 2.625 -8.859375 C 2.625 -8.300781 2.804688 -7.835938 3.167969 -7.492188 C 3.53125 -7.128906 3.992188 -6.964844 4.570312 -6.964844 C 5.132812 -6.964844 5.578125 -7.128906 5.941406 -7.492188 C 6.304688 -7.835938 6.484375 -8.265625 6.484375 -8.777344 C 6.484375 -9.304688 6.285156 -9.75 5.921875 -10.113281 C 5.558594 -10.476562 5.097656 -10.660156 4.554688 -10.660156 C 3.992188 -10.660156 3.53125 -10.476562 3.167969 -10.132812 C 2.804688 -9.769531 2.625 -9.355469 2.625 -8.859375 Z M 2.160156 -3.414062 C 2.160156 -2.988281 2.261719 -2.589844 2.457031 -2.210938 C 2.65625 -1.816406 2.9375 -1.519531 3.332031 -1.304688 C 3.710938 -1.089844 4.125 -0.988281 4.570312 -0.988281 C 5.261719 -0.988281 5.824219 -1.203125 6.285156 -1.648438 C 6.730469 -2.09375 6.964844 -2.671875 6.964844 -3.367188 C 6.964844 -4.058594 6.730469 -4.621094 6.269531 -5.082031 C 5.808594 -5.542969 5.214844 -5.773438 4.519531 -5.773438 C 3.828125 -5.773438 3.265625 -5.542969 2.820312 -5.097656 C 2.375 -4.636719 2.160156 -4.074219 2.160156 -3.414062 Z M 2.160156 -3.414062 "/>
</g>
<g id="glyph-0-4">
<path d="M 6.15625 0 L 4.703125 0 L 4.703125 -9.238281 C 4.339844 -8.910156 3.878906 -8.5625 3.316406 -8.234375 C 2.753906 -7.902344 2.242188 -7.65625 1.796875 -7.492188 L 1.796875 -8.894531 C 2.605469 -9.273438 3.316406 -9.734375 3.925781 -10.28125 C 4.519531 -10.808594 4.949219 -11.335938 5.214844 -11.863281 L 6.15625 -11.863281 Z M 6.15625 0 "/>
</g>
<g id="glyph-0-5">
<path d="M 0.691406 -5.824219 C 0.691406 -7.210938 0.824219 -8.332031 1.121094 -9.191406 C 1.402344 -10.046875 1.832031 -10.707031 2.390625 -11.171875 C 2.953125 -11.632812 3.679688 -11.863281 4.539062 -11.863281 C 5.164062 -11.863281 5.726562 -11.730469 6.203125 -11.46875 C 6.664062 -11.203125 7.0625 -10.839844 7.375 -10.363281 C 7.6875 -9.882812 7.9375 -9.304688 8.117188 -8.613281 C 8.28125 -7.921875 8.382812 -6.980469 8.382812 -5.824219 C 8.382812 -4.4375 8.234375 -3.316406 7.953125 -2.457031 C 7.671875 -1.601562 7.242188 -0.957031 6.683594 -0.496094 C 6.121094 -0.03125 5.394531 0.179688 4.539062 0.179688 C 3.382812 0.179688 2.492188 -0.214844 1.847656 -1.023438 C 1.074219 -1.996094 0.691406 -3.597656 0.691406 -5.824219 Z M 2.179688 -5.824219 C 2.179688 -3.878906 2.390625 -2.589844 2.855469 -1.945312 C 3.300781 -1.304688 3.859375 -0.988281 4.519531 -0.988281 C 5.179688 -0.988281 5.742188 -1.304688 6.203125 -1.945312 C 6.664062 -2.589844 6.898438 -3.878906 6.898438 -5.824219 C 6.898438 -7.773438 6.664062 -9.058594 6.203125 -9.703125 C 5.742188 -10.328125 5.179688 -10.660156 4.519531 -10.660156 C 3.84375 -10.660156 3.316406 -10.378906 2.921875 -9.816406 C 2.425781 -9.089844 2.179688 -7.753906 2.179688 -5.824219 Z M 2.179688 -5.824219 "/>
</g>
<g id="glyph-0-6">
<path d="M 1.5 0 L 1.5 -1.648438 L 3.152344 -1.648438 L 3.152344 0 Z M 1.5 0 "/>
</g>
<g id="glyph-0-7">
<path d="M 0.691406 -3.117188 L 2.144531 -3.316406 C 2.308594 -2.492188 2.589844 -1.898438 2.988281 -1.535156 C 3.382812 -1.171875 3.878906 -0.988281 4.453125 -0.988281 C 5.132812 -0.988281 5.710938 -1.222656 6.171875 -1.699219 C 6.632812 -2.160156 6.878906 -2.753906 6.878906 -3.449219 C 6.878906 -4.109375 6.648438 -4.667969 6.21875 -5.097656 C 5.792969 -5.527344 5.230469 -5.757812 4.570312 -5.757812 C 4.289062 -5.757812 3.945312 -5.691406 3.546875 -5.59375 L 3.710938 -6.863281 C 3.8125 -6.847656 3.878906 -6.847656 3.945312 -6.847656 C 4.554688 -6.847656 5.113281 -6.996094 5.609375 -7.324219 C 6.105469 -7.65625 6.351562 -8.152344 6.351562 -8.828125 C 6.351562 -9.355469 6.171875 -9.785156 5.808594 -10.132812 C 5.445312 -10.476562 4.984375 -10.660156 4.421875 -10.660156 C 3.859375 -10.660156 3.382812 -10.476562 3.003906 -10.132812 C 2.625 -9.769531 2.390625 -9.238281 2.292969 -8.546875 L 0.839844 -8.792969 C 1.007812 -9.769531 1.417969 -10.527344 2.046875 -11.054688 C 2.671875 -11.582031 3.449219 -11.863281 4.390625 -11.863281 C 5.03125 -11.863281 5.625 -11.714844 6.171875 -11.433594 C 6.699219 -11.152344 7.113281 -10.773438 7.410156 -10.3125 C 7.707031 -9.835938 7.855469 -9.324219 7.855469 -8.792969 C 7.855469 -8.265625 7.707031 -7.804688 7.441406 -7.390625 C 7.160156 -6.964844 6.75 -6.632812 6.21875 -6.402344 C 6.914062 -6.238281 7.441406 -5.890625 7.835938 -5.394531 C 8.234375 -4.882812 8.429688 -4.242188 8.429688 -3.480469 C 8.429688 -2.457031 8.050781 -1.585938 7.292969 -0.875 C 6.535156 -0.148438 5.59375 0.199219 4.453125 0.199219 C 3.398438 0.199219 2.539062 -0.0976562 1.863281 -0.726562 C 1.171875 -1.335938 0.792969 -2.128906 0.691406 -3.117188 Z M 0.691406 -3.117188 "/>
</g>
<g id="glyph-1-0">
<path d="M 10.136719 -6.007812 L 8.972656 0 L 7.335938 0 L 8.5 -5.953125 C 8.535156 -6.222656 8.570312 -6.460938 8.609375 -6.679688 C 8.644531 -6.898438 8.664062 -7.0625 8.664062 -7.1875 C 8.664062 -7.679688 8.5 -8.0625 8.191406 -8.355469 C 7.863281 -8.625 7.425781 -8.773438 6.878906 -8.773438 C 6.007812 -8.773438 5.242188 -8.480469 4.605469 -7.898438 C 3.96875 -7.316406 3.550781 -6.515625 3.367188 -5.515625 L 2.273438 0 L 0.636719 0 L 2.566406 -9.957031 L 4.203125 -9.957031 L 3.875 -8.390625 C 4.3125 -8.953125 4.859375 -9.390625 5.515625 -9.71875 C 6.152344 -10.027344 6.824219 -10.191406 7.535156 -10.191406 C 8.410156 -10.191406 9.082031 -9.957031 9.574219 -9.480469 C 10.046875 -9.007812 10.300781 -8.335938 10.300781 -7.480469 C 10.300781 -7.261719 10.28125 -7.042969 10.265625 -6.808594 C 10.226562 -6.550781 10.191406 -6.296875 10.136719 -6.007812 Z M 10.136719 -6.007812 "/>
</g>
<g id="glyph-1-1">
<path d="M 9.027344 -6.132812 C 9.027344 -7.007812 8.828125 -7.664062 8.464844 -8.136719 C 8.082031 -8.589844 7.535156 -8.828125 6.824219 -8.828125 C 6.332031 -8.828125 5.859375 -8.699219 5.421875 -8.445312 C 4.988281 -8.191406 4.585938 -7.84375 4.257812 -7.371094 C 3.914062 -6.898438 3.640625 -6.316406 3.441406 -5.660156 C 3.238281 -5.003906 3.148438 -4.351562 3.148438 -3.695312 C 3.148438 -2.855469 3.332031 -2.21875 3.710938 -1.785156 C 4.078125 -1.328125 4.621094 -1.109375 5.332031 -1.109375 C 5.84375 -1.109375 6.316406 -1.21875 6.753906 -1.472656 C 7.1875 -1.710938 7.570312 -2.054688 7.898438 -2.53125 C 8.226562 -3.003906 8.5 -3.585938 8.71875 -4.242188 C 8.917969 -4.894531 9.027344 -5.53125 9.027344 -6.132812 Z M 3.96875 -8.445312 C 4.40625 -9.007812 4.914062 -9.445312 5.515625 -9.738281 C 6.097656 -10.027344 6.769531 -10.191406 7.5 -10.191406 C 8.519531 -10.191406 9.300781 -9.847656 9.863281 -9.191406 C 10.429688 -8.519531 10.71875 -7.589844 10.71875 -6.386719 C 10.71875 -5.40625 10.539062 -4.460938 10.191406 -3.566406 C 9.828125 -2.675781 9.335938 -1.875 8.679688 -1.183594 C 8.246094 -0.710938 7.734375 -0.347656 7.1875 -0.109375 C 6.644531 0.109375 6.0625 0.238281 5.460938 0.238281 C 4.75 0.238281 4.148438 0.0898438 3.675781 -0.183594 C 3.203125 -0.472656 2.839844 -0.910156 2.601562 -1.492188 L 1.582031 3.765625 L -0.0351562 3.765625 L 2.621094 -9.957031 L 4.257812 -9.957031 Z M 3.96875 -8.445312 "/>
</g>
<g id="glyph-2-0">
<path d="M 6.371094 -6.765625 L 6.152344 -5.683594 C 5.847656 -5.835938 5.515625 -5.960938 5.183594 -6.050781 C 4.855469 -6.128906 4.511719 -6.179688 4.152344 -6.179688 C 3.542969 -6.179688 3.070312 -6.078125 2.726562 -5.875 C 2.382812 -5.667969 2.214844 -5.390625 2.214844 -5.03125 C 2.214844 -4.625 2.613281 -4.304688 3.425781 -4.089844 C 3.476562 -4.0625 3.527344 -4.050781 3.554688 -4.050781 L 3.925781 -3.9375 C 4.6875 -3.71875 5.199219 -3.492188 5.453125 -3.261719 C 5.707031 -3.03125 5.835938 -2.714844 5.835938 -2.320312 C 5.835938 -1.578125 5.542969 -0.980469 4.957031 -0.523438 C 4.371094 -0.0625 3.59375 0.164062 2.648438 0.164062 C 2.28125 0.164062 1.898438 0.128906 1.492188 0.0625 C 1.082031 0 0.625 -0.101562 0.140625 -0.253906 L 0.371094 -1.441406 C 0.777344 -1.210938 1.199219 -1.042969 1.605469 -0.941406 C 2.011719 -0.828125 2.394531 -0.777344 2.777344 -0.777344 C 3.335938 -0.777344 3.785156 -0.890625 4.140625 -1.132812 C 4.484375 -1.375 4.664062 -1.683594 4.664062 -2.050781 C 4.664062 -2.445312 4.203125 -2.765625 3.285156 -3.019531 L 3.171875 -3.042969 L 2.777344 -3.148438 C 2.191406 -3.300781 1.757812 -3.492188 1.492188 -3.746094 C 1.222656 -4 1.09375 -4.320312 1.09375 -4.714844 C 1.09375 -5.453125 1.363281 -6.050781 1.921875 -6.484375 C 2.484375 -6.917969 3.234375 -7.132812 4.203125 -7.132812 C 4.585938 -7.132812 4.957031 -7.097656 5.3125 -7.03125 C 5.667969 -6.96875 6.011719 -6.878906 6.371094 -6.765625 Z M 6.371094 -6.765625 "/>
</g>
<g id="glyph-3-0">
<path d="M 0 -2.054688 L -18.617188 -2.054688 L -18.617188 -15.523438 L -16.40625 -15.523438 L -16.40625 -4.523438 L -10.710938 -4.523438 L -10.710938 -14.820312 L -8.527344 -14.820312 L -8.527344 -4.523438 L -2.183594 -4.523438 L -2.183594 -15.9375 L 0 -15.9375 Z M 0 -2.054688 "/>
</g>
<g id="glyph-3-1">
<path d="M 0 -0.183594 L -7.019531 -5.121094 L -13.492188 -0.546875 L -13.492188 -3.40625 L -10.320312 -5.484375 C -9.699219 -5.851562 -9.203125 -6.160156 -8.8125 -6.421875 C -9.359375 -6.785156 -9.855469 -7.148438 -10.296875 -7.460938 L -13.492188 -9.722656 L -13.492188 -12.453125 L -7.125 -7.800781 L 0 -12.816406 L 0 -10.011719 L -4.1875 -7.226562 L -5.328125 -6.5 L 0 -2.964844 Z M 0 -0.183594 "/>
</g>
<g id="glyph-3-2">
<path d="M -4.941406 -10.503906 L -4.652344 -12.765625 C -3.09375 -12.507812 -1.871094 -11.882812 -1.015625 -10.867188 C -0.128906 -9.855469 0.285156 -8.605469 0.285156 -7.148438 C 0.285156 -5.277344 -0.3125 -3.796875 -1.507812 -2.679688 C -2.703125 -1.558594 -4.421875 -1.015625 -6.683594 -1.015625 C -8.136719 -1.015625 -9.410156 -1.246094 -10.503906 -1.742188 C -11.597656 -2.210938 -12.402344 -2.9375 -12.949219 -3.925781 C -13.492188 -4.914062 -13.78125 -5.980469 -13.78125 -7.148438 C -13.78125 -8.605469 -13.390625 -9.800781 -12.660156 -10.738281 C -11.933594 -11.675781 -10.867188 -12.273438 -9.515625 -12.53125 L -9.179688 -10.320312 C -10.0625 -10.113281 -10.738281 -9.722656 -11.207031 -9.203125 C -11.675781 -8.65625 -11.90625 -8.007812 -11.90625 -7.253906 C -11.90625 -6.085938 -11.492188 -5.148438 -10.660156 -4.421875 C -9.828125 -3.691406 -8.527344 -3.355469 -6.761719 -3.355469 C -4.941406 -3.355469 -3.613281 -3.691406 -2.808594 -4.394531 C -1.976562 -5.070312 -1.585938 -5.980469 -1.585938 -7.125 C -1.585938 -8.007812 -1.847656 -8.761719 -2.390625 -9.359375 C -2.9375 -9.957031 -3.796875 -10.347656 -4.941406 -10.503906 Z M -4.941406 -10.503906 "/>
</g>
<g id="glyph-3-3">
<path d="M -4.34375 -10.945312 L -4.054688 -13.3125 C -2.652344 -12.921875 -1.585938 -12.21875 -0.832031 -11.230469 C -0.078125 -10.21875 0.285156 -8.945312 0.285156 -7.382812 C 0.285156 -5.40625 -0.3125 -3.820312 -1.507812 -2.679688 C -2.703125 -1.535156 -4.421875 -0.960938 -6.628906 -0.960938 C -8.890625 -0.960938 -10.660156 -1.535156 -11.90625 -2.703125 C -13.15625 -3.847656 -13.78125 -5.382812 -13.78125 -7.253906 C -13.78125 -9.046875 -13.15625 -10.53125 -11.933594 -11.675781 C -10.710938 -12.816406 -8.996094 -13.390625 -6.761719 -13.390625 C -6.605469 -13.390625 -6.421875 -13.363281 -6.160156 -13.363281 L -6.160156 -3.300781 C -4.652344 -3.378906 -3.535156 -3.796875 -2.757812 -4.550781 C -1.976562 -5.304688 -1.585938 -6.238281 -1.585938 -7.382812 C -1.585938 -8.214844 -1.792969 -8.945312 -2.234375 -9.542969 C -2.652344 -10.113281 -3.355469 -10.582031 -4.34375 -10.945312 Z M -8.035156 -3.433594 L -8.035156 -10.972656 C -9.179688 -10.867188 -10.011719 -10.582031 -10.582031 -10.113281 C -11.464844 -9.386719 -11.90625 -8.425781 -11.90625 -7.28125 C -11.90625 -6.214844 -11.542969 -5.328125 -10.84375 -4.628906 C -10.140625 -3.898438 -9.203125 -3.511719 -8.035156 -3.433594 Z M -8.035156 -3.433594 "/>
</g>
<g id="glyph-3-4">
<path d="M -4.03125 -0.804688 L -4.367188 -3.066406 C -3.457031 -3.171875 -2.757812 -3.535156 -2.289062 -4.109375 C -1.820312 -4.679688 -1.585938 -5.511719 -1.585938 -6.550781 C -1.585938 -7.59375 -1.792969 -8.371094 -2.210938 -8.890625 C -2.625 -9.386719 -3.144531 -9.644531 -3.71875 -9.644531 C -4.238281 -9.644531 -4.628906 -9.410156 -4.941406 -8.96875 C -5.148438 -8.65625 -5.40625 -7.878906 -5.71875 -6.628906 C -6.136719 -4.964844 -6.5 -3.796875 -6.8125 -3.144531 C -7.125 -2.496094 -7.539062 -2.003906 -8.085938 -1.664062 C -8.632812 -1.324219 -9.230469 -1.171875 -9.90625 -1.171875 C -10.503906 -1.171875 -11.050781 -1.300781 -11.570312 -1.585938 C -12.089844 -1.847656 -12.507812 -2.234375 -12.84375 -2.703125 C -13.105469 -3.066406 -13.3125 -3.535156 -13.492188 -4.160156 C -13.675781 -4.785156 -13.78125 -5.433594 -13.78125 -6.136719 C -13.78125 -7.175781 -13.625 -8.113281 -13.3125 -8.917969 C -13 -9.722656 -12.609375 -10.320312 -12.089844 -10.710938 C -11.570312 -11.074219 -10.867188 -11.335938 -10.011719 -11.492188 L -9.699219 -9.257812 C -10.375 -9.152344 -10.921875 -8.839844 -11.308594 -8.371094 C -11.699219 -7.878906 -11.90625 -7.203125 -11.90625 -6.316406 C -11.90625 -5.253906 -11.726562 -4.496094 -11.386719 -4.054688 C -11.023438 -3.589844 -10.632812 -3.378906 -10.164062 -3.378906 C -9.855469 -3.378906 -9.59375 -3.457031 -9.359375 -3.664062 C -9.101562 -3.847656 -8.917969 -4.132812 -8.761719 -4.550781 C -8.65625 -4.757812 -8.476562 -5.433594 -8.164062 -6.550781 C -7.746094 -8.164062 -7.382812 -9.308594 -7.125 -9.933594 C -6.839844 -10.554688 -6.421875 -11.074219 -5.902344 -11.441406 C -5.382812 -11.804688 -4.730469 -11.984375 -3.953125 -11.984375 C -3.171875 -11.984375 -2.46875 -11.753906 -1.792969 -11.308594 C -1.117188 -10.867188 -0.625 -10.21875 -0.261719 -9.386719 C 0.105469 -8.554688 0.285156 -7.59375 0.285156 -6.550781 C 0.285156 -4.785156 -0.0507812 -3.457031 -0.78125 -2.546875 C -1.507812 -1.613281 -2.574219 -1.039062 -4.03125 -0.804688 Z M -4.03125 -0.804688 "/>
</g>
<g id="glyph-3-5">
</g>
<g id="glyph-3-6">
<path d="M 0 -1.691406 L -13.492188 -1.691406 L -13.492188 -3.742188 L -11.441406 -3.742188 C -12.375 -4.265625 -13 -4.730469 -13.3125 -5.199219 C -13.625 -5.640625 -13.78125 -6.136719 -13.78125 -6.65625 C -13.78125 -7.4375 -13.519531 -8.214844 -13.050781 -9.023438 L -10.921875 -8.214844 C -11.230469 -7.644531 -11.414062 -7.097656 -11.414062 -6.550781 C -11.414062 -6.03125 -11.257812 -5.589844 -10.972656 -5.199219 C -10.660156 -4.785156 -10.242188 -4.496094 -9.722656 -4.34375 C -8.890625 -4.082031 -8.007812 -3.976562 -7.046875 -3.976562 L 0 -3.976562 Z M 0 -1.691406 "/>
</g>
<g id="glyph-3-7">
<path d="M -15.988281 -1.714844 L -18.617188 -1.714844 L -18.617188 -4.003906 L -15.988281 -4.003906 Z M 0 -1.714844 L -13.492188 -1.714844 L -13.492188 -4.003906 L 0 -4.003906 Z M 0 -1.714844 "/>
</g>
<g id="glyph-3-8">
<path d="M 0 -1.714844 L -18.617188 -1.714844 L -18.617188 -4.003906 L -8.007812 -4.003906 L -13.492188 -9.410156 L -13.492188 -12.375 L -8.476562 -7.226562 L 0 -12.894531 L 0 -10.089844 L -6.890625 -5.617188 L -5.355469 -4.003906 L 0 -4.003906 Z M 0 -1.714844 "/>
</g>
<g id="glyph-4-0">
<path d="M 4.898438 -5.203125 L 4.734375 -4.371094 C 4.5 -4.488281 4.242188 -4.585938 3.988281 -4.65625 C 3.734375 -4.714844 3.46875 -4.753906 3.195312 -4.753906 C 2.722656 -4.753906 2.363281 -4.675781 2.097656 -4.519531 C 1.832031 -4.359375 1.707031 -4.144531 1.707031 -3.871094 C 1.707031 -3.558594 2.007812 -3.3125 2.636719 -3.144531 C 2.675781 -3.125 2.714844 -3.117188 2.734375 -3.117188 L 3.019531 -3.027344 C 3.605469 -2.863281 4 -2.683594 4.195312 -2.507812 C 4.390625 -2.332031 4.488281 -2.085938 4.488281 -1.785156 C 4.488281 -1.214844 4.261719 -0.753906 3.8125 -0.402344 C 3.363281 -0.0507812 2.761719 0.128906 2.039062 0.128906 C 1.753906 0.128906 1.460938 0.0976562 1.148438 0.0507812 C 0.832031 0 0.480469 -0.078125 0.109375 -0.195312 L 0.285156 -1.105469 C 0.597656 -0.929688 0.921875 -0.804688 1.234375 -0.726562 C 1.546875 -0.636719 1.84375 -0.597656 2.136719 -0.597656 C 2.566406 -0.597656 2.910156 -0.6875 3.183594 -0.871094 C 3.449219 -1.058594 3.585938 -1.292969 3.585938 -1.578125 C 3.585938 -1.882812 3.234375 -2.125 2.527344 -2.324219 L 2.441406 -2.34375 L 2.136719 -2.421875 C 1.6875 -2.539062 1.351562 -2.683594 1.148438 -2.882812 C 0.941406 -3.078125 0.84375 -3.320312 0.84375 -3.625 C 0.84375 -4.195312 1.046875 -4.65625 1.480469 -4.988281 C 1.910156 -5.320312 2.488281 -5.488281 3.234375 -5.488281 C 3.527344 -5.488281 3.8125 -5.457031 4.085938 -5.410156 C 4.359375 -5.359375 4.625 -5.292969 4.898438 -5.203125 Z M 4.898438 -5.203125 "/>
</g>
<g id="glyph-5-0">
<path d="M 1.484375 -6.355469 L 10.246094 -6.355469 L 10.246094 -5.207031 L 1.484375 -5.207031 Z M 1.484375 -3.570312 L 10.246094 -3.570312 L 10.246094 -2.40625 L 1.484375 -2.40625 Z M 1.484375 -3.570312 "/>
</g>
<g id="glyph-5-1">
<path d="M 4.453125 -9.296875 C 3.738281 -9.296875 3.207031 -8.945312 2.84375 -8.246094 C 2.476562 -7.546875 2.308594 -6.496094 2.308594 -5.097656 C 2.308594 -3.695312 2.476562 -2.644531 2.84375 -1.945312 C 3.207031 -1.246094 3.738281 -0.894531 4.453125 -0.894531 C 5.164062 -0.894531 5.699219 -1.246094 6.0625 -1.945312 C 6.410156 -2.644531 6.59375 -3.695312 6.59375 -5.097656 C 6.59375 -6.496094 6.410156 -7.546875 6.0625 -8.246094 C 5.699219 -8.945312 5.164062 -9.296875 4.453125 -9.296875 Z M 4.453125 -10.386719 C 5.585938 -10.386719 6.453125 -9.925781 7.070312 -9.03125 C 7.671875 -8.121094 7.980469 -6.804688 7.980469 -5.097656 C 7.980469 -3.375 7.671875 -2.058594 7.070312 -1.160156 C 6.453125 -0.265625 5.585938 0.183594 4.4375 0.183594 C 3.289062 0.183594 2.421875 -0.265625 1.820312 -1.160156 C 1.21875 -2.058594 0.925781 -3.375 0.925781 -5.097656 C 0.925781 -6.804688 1.21875 -8.121094 1.820312 -9.03125 C 2.421875 -9.925781 3.304688 -10.386719 4.453125 -10.386719 Z M 4.453125 -10.386719 "/>
</g>
<g id="glyph-5-2">
<path d="M 1.496094 -1.734375 L 2.941406 -1.734375 L 2.941406 0 L 1.496094 0 Z M 1.496094 -1.734375 "/>
</g>
<g id="glyph-5-3">
<path d="M 1.539062 -0.210938 L 1.539062 -1.46875 C 1.875 -1.300781 2.226562 -1.175781 2.589844 -1.09375 C 2.941406 -1.007812 3.289062 -0.964844 3.640625 -0.964844 C 4.535156 -0.964844 5.234375 -1.261719 5.710938 -1.875 C 6.1875 -2.492188 6.46875 -3.414062 6.550781 -4.675781 C 6.273438 -4.285156 5.9375 -3.976562 5.542969 -3.765625 C 5.136719 -3.554688 4.691406 -3.457031 4.199219 -3.457031 C 3.164062 -3.457031 2.351562 -3.765625 1.765625 -4.382812 C 1.175781 -4.996094 0.882812 -5.839844 0.882812 -6.914062 C 0.882812 -7.953125 1.191406 -8.792969 1.804688 -9.4375 C 2.421875 -10.066406 3.246094 -10.386719 4.285156 -10.386719 C 5.460938 -10.386719 6.371094 -9.925781 6.984375 -9.03125 C 7.601562 -8.121094 7.925781 -6.804688 7.925781 -5.097656 C 7.925781 -3.472656 7.53125 -2.199219 6.777344 -1.246094 C 6.007812 -0.292969 4.984375 0.183594 3.695312 0.183594 C 3.347656 0.183594 2.996094 0.140625 2.644531 0.0859375 C 2.28125 0.0273438 1.917969 -0.0703125 1.539062 -0.210938 Z M 4.285156 -4.535156 C 4.898438 -4.535156 5.390625 -4.746094 5.753906 -5.164062 C 6.117188 -5.585938 6.300781 -6.175781 6.300781 -6.914062 C 6.300781 -7.644531 6.117188 -8.230469 5.753906 -8.652344 C 5.390625 -9.070312 4.898438 -9.296875 4.285156 -9.296875 C 3.667969 -9.296875 3.179688 -9.070312 2.8125 -8.652344 C 2.449219 -8.230469 2.269531 -7.644531 2.269531 -6.914062 C 2.269531 -6.175781 2.449219 -5.585938 2.8125 -5.164062 C 3.179688 -4.746094 3.667969 -4.535156 4.285156 -4.535156 Z M 4.285156 -4.535156 "/>
</g>
<g id="glyph-5-4">
<path d="M 1.511719 -10.207031 L 6.929688 -10.207031 L 6.929688 -9.042969 L 2.773438 -9.042969 L 2.773438 -6.539062 C 2.96875 -6.609375 3.179688 -6.664062 3.375 -6.691406 C 3.570312 -6.71875 3.78125 -6.746094 3.976562 -6.746094 C 5.109375 -6.746094 6.007812 -6.425781 6.679688 -5.808594 C 7.351562 -5.179688 7.6875 -4.339844 7.6875 -3.277344 C 7.6875 -2.171875 7.335938 -1.316406 6.648438 -0.714844 C 5.964844 -0.113281 4.996094 0.183594 3.765625 0.183594 C 3.332031 0.183594 2.898438 0.140625 2.449219 0.0859375 C 2.003906 0.015625 1.554688 -0.0859375 1.078125 -0.238281 L 1.078125 -1.625 C 1.484375 -1.398438 1.902344 -1.230469 2.351562 -1.121094 C 2.785156 -1.007812 3.246094 -0.964844 3.738281 -0.964844 C 4.523438 -0.964844 5.152344 -1.160156 5.613281 -1.582031 C 6.0625 -2.003906 6.300781 -2.5625 6.300781 -3.277344 C 6.300781 -3.976562 6.0625 -4.535156 5.613281 -4.957031 C 5.152344 -5.375 4.523438 -5.585938 3.738281 -5.585938 C 3.375 -5.585938 2.996094 -5.542969 2.632812 -5.460938 C 2.269531 -5.375 1.890625 -5.25 1.511719 -5.082031 Z M 1.511719 -10.207031 "/>
</g>
<g id="glyph-5-5">
<path d="M 1.734375 -1.160156 L 3.988281 -1.160156 L 3.988281 -8.945312 L 1.539062 -8.457031 L 1.539062 -9.714844 L 3.976562 -10.207031 L 5.363281 -10.207031 L 5.363281 -1.160156 L 7.617188 -1.160156 L 7.617188 0 L 1.734375 0 Z M 1.734375 -1.160156 "/>
</g>
<g id="glyph-6-0">
</g>
<g id="glyph-6-1">
<path d="M 3.277344 2.925781 C 2.589844 2.070312 2.015625 1.078125 1.554688 -0.0546875 C 1.078125 -1.203125 0.855469 -2.394531 0.855469 -3.625 C 0.855469 -4.703125 1.023438 -5.738281 1.371094 -6.746094 C 1.777344 -7.894531 2.40625 -9.042969 3.277344 -10.191406 L 4.15625 -10.191406 C 3.597656 -9.238281 3.234375 -8.554688 3.066406 -8.160156 C 2.785156 -7.53125 2.5625 -6.875 2.40625 -6.1875 C 2.210938 -5.335938 2.113281 -4.480469 2.113281 -3.625 C 2.113281 -1.429688 2.785156 0.742188 4.15625 2.925781 Z M 3.277344 2.925781 "/>
</g>
<g id="glyph-6-2">
<path d="M 3.613281 -1.105469 L 3.792969 -0.015625 C 3.429688 0.0429688 3.121094 0.0859375 2.855469 0.0859375 C 2.40625 0.0859375 2.058594 0.015625 1.820312 -0.113281 C 1.566406 -0.253906 1.398438 -0.433594 1.300781 -0.671875 C 1.191406 -0.894531 1.148438 -1.386719 1.148438 -2.128906 L 1.148438 -6.300781 L 0.253906 -6.300781 L 0.253906 -7.265625 L 1.148438 -7.265625 L 1.148438 -9.058594 L 2.367188 -9.800781 L 2.367188 -7.265625 L 3.613281 -7.265625 L 3.613281 -6.300781 L 2.367188 -6.300781 L 2.367188 -2.058594 C 2.367188 -1.695312 2.378906 -1.46875 2.4375 -1.371094 C 2.476562 -1.273438 2.546875 -1.191406 2.644531 -1.132812 C 2.742188 -1.078125 2.882812 -1.050781 3.066406 -1.050781 C 3.207031 -1.050781 3.386719 -1.0625 3.613281 -1.105469 Z M 3.613281 -1.105469 "/>
</g>
<g id="glyph-6-3">
<path d="M 0.925781 0 L 0.925781 -10.023438 L 2.15625 -10.023438 L 2.15625 -6.425781 C 2.714844 -7.085938 3.445312 -7.421875 4.324219 -7.421875 C 4.859375 -7.421875 5.335938 -7.308594 5.726562 -7.097656 C 6.117188 -6.886719 6.410156 -6.59375 6.578125 -6.230469 C 6.746094 -5.851562 6.832031 -5.304688 6.832031 -4.605469 L 6.832031 0 L 5.601562 0 L 5.601562 -4.605469 C 5.601562 -5.222656 5.460938 -5.671875 5.195312 -5.949219 C 4.929688 -6.230469 4.550781 -6.371094 4.074219 -6.371094 C 3.710938 -6.371094 3.359375 -6.273438 3.039062 -6.074219 C 2.714844 -5.878906 2.492188 -5.628906 2.351562 -5.304688 C 2.210938 -4.984375 2.15625 -4.535156 2.15625 -3.976562 L 2.15625 0 Z M 0.925781 0 "/>
</g>
<g id="glyph-6-4">
<path d="M 5.894531 -2.339844 L 7.167969 -2.183594 C 6.957031 -1.429688 6.578125 -0.855469 6.046875 -0.449219 C 5.503906 -0.0429688 4.816406 0.152344 3.976562 0.152344 C 2.910156 0.152344 2.058594 -0.167969 1.441406 -0.8125 C 0.824219 -1.457031 0.519531 -2.378906 0.519531 -3.570312 C 0.519531 -4.789062 0.824219 -5.738281 1.457031 -6.410156 C 2.070312 -7.085938 2.898438 -7.421875 3.90625 -7.421875 C 4.871094 -7.421875 5.671875 -7.085938 6.285156 -6.425781 C 6.902344 -5.769531 7.210938 -4.84375 7.210938 -3.640625 C 7.210938 -3.554688 7.195312 -3.457031 7.195312 -3.316406 L 1.777344 -3.316406 C 1.820312 -2.507812 2.042969 -1.902344 2.449219 -1.484375 C 2.855469 -1.0625 3.359375 -0.855469 3.976562 -0.855469 C 4.425781 -0.855469 4.816406 -0.964844 5.136719 -1.203125 C 5.445312 -1.429688 5.699219 -1.804688 5.894531 -2.339844 Z M 1.847656 -4.324219 L 5.90625 -4.324219 C 5.851562 -4.941406 5.699219 -5.390625 5.445312 -5.699219 C 5.054688 -6.175781 4.535156 -6.410156 3.921875 -6.410156 C 3.347656 -6.410156 2.871094 -6.214844 2.492188 -5.839844 C 2.101562 -5.460938 1.890625 -4.957031 1.847656 -4.324219 Z M 1.847656 -4.324219 "/>
</g>
<g id="glyph-6-5">
<path d="M 0.460938 -3.625 C 0.460938 -4.96875 0.824219 -5.964844 1.582031 -6.621094 C 2.199219 -7.152344 2.96875 -7.421875 3.863281 -7.421875 C 4.859375 -7.421875 5.671875 -7.085938 6.3125 -6.441406 C 6.945312 -5.78125 7.265625 -4.886719 7.265625 -3.738281 C 7.265625 -2.800781 7.125 -2.058594 6.847656 -1.527344 C 6.566406 -0.992188 6.144531 -0.574219 5.613281 -0.28125 C 5.082031 0 4.492188 0.152344 3.863281 0.152344 C 2.84375 0.152344 2.015625 -0.167969 1.398438 -0.8125 C 0.769531 -1.457031 0.460938 -2.394531 0.460938 -3.625 Z M 1.734375 -3.625 C 1.734375 -2.703125 1.933594 -2.003906 2.339844 -1.539062 C 2.730469 -1.078125 3.246094 -0.855469 3.863281 -0.855469 C 4.480469 -0.855469 4.984375 -1.078125 5.390625 -1.539062 C 5.796875 -2.003906 6.007812 -2.714844 6.007812 -3.667969 C 6.007812 -4.5625 5.796875 -5.234375 5.390625 -5.710938 C 4.96875 -6.175781 4.464844 -6.410156 3.863281 -6.410156 C 3.246094 -6.410156 2.730469 -6.175781 2.339844 -5.710938 C 1.933594 -5.25 1.734375 -4.550781 1.734375 -3.625 Z M 1.734375 -3.625 "/>
</g>
<g id="glyph-6-6">
<path d="M 0.910156 0 L 0.910156 -7.265625 L 2.015625 -7.265625 L 2.015625 -6.160156 C 2.296875 -6.664062 2.546875 -7 2.800781 -7.167969 C 3.039062 -7.335938 3.304688 -7.421875 3.585938 -7.421875 C 4.003906 -7.421875 4.425781 -7.28125 4.859375 -7.027344 L 4.425781 -5.878906 C 4.117188 -6.046875 3.820312 -6.144531 3.527344 -6.144531 C 3.246094 -6.144531 3.011719 -6.0625 2.800781 -5.90625 C 2.574219 -5.738281 2.421875 -5.515625 2.339844 -5.234375 C 2.199219 -4.789062 2.140625 -4.3125 2.140625 -3.792969 L 2.140625 0 Z M 0.910156 0 "/>
</g>
<g id="glyph-6-7">
<path d="M 0.867188 2.785156 L 0.726562 1.625 C 0.992188 1.695312 1.230469 1.734375 1.441406 1.734375 C 1.707031 1.734375 1.917969 1.679688 2.085938 1.597656 C 2.253906 1.496094 2.378906 1.371094 2.492188 1.21875 C 2.574219 1.09375 2.703125 0.785156 2.871094 0.292969 C 2.898438 0.222656 2.925781 0.125 2.980469 0 L 0.222656 -7.265625 L 1.554688 -7.265625 L 3.066406 -3.050781 C 3.261719 -2.519531 3.429688 -1.960938 3.585938 -1.371094 C 3.722656 -1.933594 3.890625 -2.492188 4.089844 -3.023438 L 5.640625 -7.265625 L 6.875 -7.265625 L 4.117188 0.113281 C 3.808594 0.894531 3.585938 1.441406 3.429688 1.75 C 3.207031 2.15625 2.953125 2.449219 2.675781 2.644531 C 2.394531 2.828125 2.058594 2.925781 1.664062 2.925781 C 1.414062 2.925781 1.148438 2.871094 0.867188 2.785156 Z M 0.867188 2.785156 "/>
</g>
<g id="glyph-6-8">
<path d="M 1.734375 2.925781 L 0.855469 2.925781 C 2.210938 0.742188 2.898438 -1.429688 2.898438 -3.625 C 2.898438 -4.480469 2.800781 -5.335938 2.605469 -6.175781 C 2.4375 -6.847656 2.226562 -7.503906 1.945312 -8.148438 C 1.765625 -8.539062 1.398438 -9.226562 0.855469 -10.191406 L 1.734375 -10.191406 C 2.574219 -9.042969 3.207031 -7.894531 3.625 -6.746094 C 3.976562 -5.738281 4.15625 -4.703125 4.15625 -3.625 C 4.15625 -2.394531 3.921875 -1.203125 3.445312 -0.0546875 C 2.96875 1.078125 2.40625 2.070312 1.734375 2.925781 Z M 1.734375 2.925781 "/>
</g>
<g id="glyph-6-9">
<path d="M 0.925781 0 L 0.925781 -7.265625 L 2.03125 -7.265625 L 2.03125 -6.242188 C 2.253906 -6.59375 2.546875 -6.875 2.925781 -7.097656 C 3.304688 -7.308594 3.738281 -7.421875 4.226562 -7.421875 C 4.761719 -7.421875 5.195312 -7.308594 5.542969 -7.085938 C 5.878906 -6.859375 6.132812 -6.539062 6.273438 -6.144531 C 6.847656 -6.984375 7.589844 -7.421875 8.511719 -7.421875 C 9.238281 -7.421875 9.785156 -7.210938 10.179688 -6.816406 C 10.570312 -6.425781 10.765625 -5.808594 10.765625 -4.984375 L 10.765625 0 L 9.535156 0 L 9.535156 -4.578125 C 9.535156 -5.054688 9.492188 -5.402344 9.40625 -5.628906 C 9.324219 -5.851562 9.183594 -6.019531 8.972656 -6.160156 C 8.765625 -6.285156 8.527344 -6.355469 8.246094 -6.355469 C 7.726562 -6.355469 7.308594 -6.175781 6.972656 -5.839844 C 6.636719 -5.503906 6.46875 -4.957031 6.46875 -4.214844 L 6.46875 0 L 5.234375 0 L 5.234375 -4.71875 C 5.234375 -5.265625 5.125 -5.671875 4.929688 -5.949219 C 4.730469 -6.214844 4.394531 -6.355469 3.949219 -6.355469 C 3.597656 -6.355469 3.277344 -6.257812 2.980469 -6.074219 C 2.6875 -5.894531 2.476562 -5.628906 2.351562 -5.277344 C 2.210938 -4.929688 2.15625 -4.425781 2.15625 -3.765625 L 2.15625 0 Z M 0.925781 0 "/>
</g>
<g id="glyph-6-10">
<path d="M 0.925781 2.773438 L 0.925781 -7.265625 L 2.042969 -7.265625 L 2.042969 -6.3125 C 2.296875 -6.679688 2.605469 -6.957031 2.941406 -7.140625 C 3.277344 -7.320312 3.667969 -7.421875 4.144531 -7.421875 C 4.761719 -7.421875 5.304688 -7.253906 5.78125 -6.945312 C 6.257812 -6.621094 6.609375 -6.175781 6.859375 -5.585938 C 7.097656 -4.996094 7.222656 -4.367188 7.222656 -3.683594 C 7.222656 -2.941406 7.085938 -2.269531 6.816406 -1.679688 C 6.550781 -1.078125 6.160156 -0.617188 5.65625 -0.308594 C 5.152344 0 4.621094 0.152344 4.058594 0.152344 C 3.640625 0.152344 3.277344 0.0703125 2.953125 -0.0976562 C 2.617188 -0.265625 2.351562 -0.476562 2.15625 -0.757812 L 2.15625 2.773438 Z M 2.042969 -3.585938 C 2.042969 -2.644531 2.226562 -1.960938 2.605469 -1.511719 C 2.980469 -1.0625 3.445312 -0.855469 3.976562 -0.855469 C 4.523438 -0.855469 4.984375 -1.078125 5.375 -1.539062 C 5.769531 -2.003906 5.964844 -2.714844 5.964844 -3.695312 C 5.964844 -4.621094 5.769531 -5.304688 5.390625 -5.769531 C 5.011719 -6.214844 4.5625 -6.453125 4.03125 -6.453125 C 3.5 -6.453125 3.039062 -6.203125 2.644531 -5.710938 C 2.238281 -5.222656 2.042969 -4.507812 2.042969 -3.585938 Z M 2.042969 -3.585938 "/>
</g>
<g id="glyph-6-11">
<path d="M 0.925781 -8.609375 L 0.925781 -10.023438 L 2.15625 -10.023438 L 2.15625 -8.609375 Z M 0.925781 0 L 0.925781 -7.265625 L 2.15625 -7.265625 L 2.15625 0 Z M 0.925781 0 "/>
</g>
<g id="glyph-6-12">
<path d="M 5.65625 -2.660156 L 6.875 -2.507812 C 6.734375 -1.664062 6.398438 -1.007812 5.851562 -0.546875 C 5.304688 -0.0703125 4.632812 0.152344 3.851562 0.152344 C 2.84375 0.152344 2.042969 -0.167969 1.441406 -0.8125 C 0.839844 -1.457031 0.546875 -2.378906 0.546875 -3.597656 C 0.546875 -4.382812 0.671875 -5.066406 0.9375 -5.65625 C 1.191406 -6.242188 1.582031 -6.679688 2.113281 -6.972656 C 2.644531 -7.265625 3.21875 -7.421875 3.851562 -7.421875 C 4.632812 -7.421875 5.277344 -7.210938 5.78125 -6.816406 C 6.285156 -6.425781 6.609375 -5.851562 6.746094 -5.125 L 5.558594 -4.941406 C 5.445312 -5.417969 5.234375 -5.78125 4.957031 -6.035156 C 4.660156 -6.285156 4.3125 -6.410156 3.90625 -6.410156 C 3.277344 -6.410156 2.773438 -6.1875 2.378906 -5.738281 C 1.988281 -5.292969 1.804688 -4.59375 1.804688 -3.640625 C 1.804688 -2.660156 1.988281 -1.945312 2.367188 -1.511719 C 2.730469 -1.0625 3.21875 -0.855469 3.835938 -0.855469 C 4.3125 -0.855469 4.71875 -0.992188 5.039062 -1.289062 C 5.363281 -1.582031 5.570312 -2.042969 5.65625 -2.660156 Z M 5.65625 -2.660156 "/>
</g>
<g id="glyph-6-13">
<path d="M 5.65625 -0.894531 C 5.195312 -0.503906 4.761719 -0.222656 4.339844 -0.0703125 C 3.921875 0.0703125 3.457031 0.152344 2.980469 0.152344 C 2.183594 0.152344 1.566406 -0.0273438 1.148438 -0.421875 C 0.714844 -0.8125 0.503906 -1.300781 0.503906 -1.917969 C 0.503906 -2.269531 0.574219 -2.589844 0.742188 -2.882812 C 0.910156 -3.179688 1.121094 -3.414062 1.386719 -3.597656 C 1.636719 -3.765625 1.933594 -3.90625 2.269531 -4.003906 C 2.507812 -4.058594 2.871094 -4.117188 3.359375 -4.1875 C 4.355469 -4.296875 5.082031 -4.4375 5.558594 -4.605469 C 5.558594 -4.773438 5.558594 -4.871094 5.558594 -4.929688 C 5.558594 -5.433594 5.445312 -5.78125 5.222656 -5.992188 C 4.898438 -6.273438 4.425781 -6.410156 3.808594 -6.410156 C 3.21875 -6.410156 2.800781 -6.300781 2.519531 -6.105469 C 2.238281 -5.894531 2.042969 -5.53125 1.917969 -5.027344 L 0.714844 -5.195312 C 0.824219 -5.699219 1.007812 -6.117188 1.261719 -6.441406 C 1.511719 -6.746094 1.863281 -7 2.339844 -7.167969 C 2.8125 -7.335938 3.359375 -7.421875 3.988281 -7.421875 C 4.605469 -7.421875 5.109375 -7.335938 5.503906 -7.195312 C 5.894531 -7.054688 6.175781 -6.875 6.355469 -6.648438 C 6.539062 -6.425781 6.664062 -6.160156 6.734375 -5.824219 C 6.777344 -5.601562 6.804688 -5.222656 6.804688 -4.675781 L 6.804688 -3.039062 C 6.804688 -1.890625 6.816406 -1.175781 6.875 -0.867188 C 6.929688 -0.558594 7.027344 -0.28125 7.195312 0 L 5.90625 0 C 5.769531 -0.253906 5.683594 -0.546875 5.65625 -0.894531 Z M 5.558594 -3.640625 C 5.109375 -3.457031 4.4375 -3.304688 3.542969 -3.179688 C 3.039062 -3.09375 2.675781 -3.011719 2.464844 -2.925781 C 2.253906 -2.84375 2.101562 -2.703125 1.988281 -2.535156 C 1.875 -2.351562 1.820312 -2.15625 1.820312 -1.945312 C 1.820312 -1.609375 1.933594 -1.34375 2.183594 -1.121094 C 2.4375 -0.894531 2.800781 -0.796875 3.277344 -0.796875 C 3.753906 -0.796875 4.171875 -0.894531 4.535156 -1.105469 C 4.898438 -1.316406 5.179688 -1.597656 5.363281 -1.960938 C 5.488281 -2.238281 5.558594 -2.644531 5.558594 -3.191406 Z M 5.558594 -3.640625 "/>
</g>
<g id="glyph-6-14">
<path d="M 0.894531 0 L 0.894531 -10.023438 L 2.128906 -10.023438 L 2.128906 0 Z M 0.894531 0 "/>
</g>
</g>
<clipPath id="clip-0">
<path clip-rule="nonzero" d="M 105 19.441406 L 108 19.441406 L 108 271.445312 L 105 271.445312 Z M 105 19.441406 "/>
</clipPath>
<clipPath id="clip-1">
<path clip-rule="nonzero" d="M 178 19.441406 L 181 19.441406 L 181 271.445312 L 178 271.445312 Z M 178 19.441406 "/>
</clipPath>
<clipPath id="clip-2">
<path clip-rule="nonzero" d="M 251 19.441406 L 253 19.441406 L 253 271.445312 L 251 271.445312 Z M 251 19.441406 "/>
</clipPath>
<clipPath id="clip-3">
<path clip-rule="nonzero" d="M 324 19.441406 L 326 19.441406 L 326 271.445312 L 324 271.445312 Z M 324 19.441406 "/>
</clipPath>
<clipPath id="clip-4">
<path clip-rule="nonzero" d="M 397 19.441406 L 399 19.441406 L 399 271.445312 L 397 271.445312 Z M 397 19.441406 "/>
</clipPath>
<clipPath id="clip-5">
<path clip-rule="nonzero" d="M 91.828125 248 L 412.558594 248 L 412.558594 250 L 91.828125 250 Z M 91.828125 248 "/>
</clipPath>
<clipPath id="clip-6">
<path clip-rule="nonzero" d="M 91.828125 177 L 412.558594 177 L 412.558594 180 L 91.828125 180 Z M 91.828125 177 "/>
</clipPath>
<clipPath id="clip-7">
<path clip-rule="nonzero" d="M 91.828125 107 L 412.558594 107 L 412.558594 109 L 91.828125 109 Z M 91.828125 107 "/>
</clipPath>
<clipPath id="clip-8">
<path clip-rule="nonzero" d="M 91.828125 36 L 412.558594 36 L 412.558594 39 L 91.828125 39 Z M 91.828125 36 "/>
</clipPath>
</defs>
<rect x="-43.2" y="-36" width="518.4" height="432" fill="rgb(100%, 100%, 100%)" fill-opacity="1"/>
<path fill-rule="nonzero" fill="rgb(100%, 100%, 100%)" fill-opacity="1" d="M 91.828125 271.445312 L 412.558594 271.445312 L 412.558594 19.441406 L 91.828125 19.441406 Z M 91.828125 271.445312 "/>
<g clip-path="url(#clip-0)">
<path fill="none" stroke-width="1.5" stroke-linecap="round" stroke-linejoin="round" stroke="rgb(79.998779%, 79.998779%, 79.998779%)" stroke-opacity="0.3" stroke-miterlimit="10" d="M 106.410156 88.554688 L 106.410156 340.558594 " transform="matrix(1, 0, 0, -1, 0, 360)"/>
</g>
<g fill="rgb(14.99939%, 14.99939%, 14.99939%)" fill-opacity="1">
<use xlink:href="#glyph-0-0" x="101.822699" y="296.118075"/>
</g>
<g clip-path="url(#clip-1)">
<path fill="none" stroke-width="1.5" stroke-linecap="round" stroke-linejoin="round" stroke="rgb(79.998779%, 79.998779%, 79.998779%)" stroke-opacity="0.3" stroke-miterlimit="10" d="M 179.300781 88.554688 L 179.300781 340.558594 " transform="matrix(1, 0, 0, -1, 0, 360)"/>
</g>
<g fill="rgb(14.99939%, 14.99939%, 14.99939%)" fill-opacity="1">
<use xlink:href="#glyph-0-1" x="174.715881" y="296.118075"/>
</g>
<g clip-path="url(#clip-2)">
<path fill="none" stroke-width="1.5" stroke-linecap="round" stroke-linejoin="round" stroke="rgb(79.998779%, 79.998779%, 79.998779%)" stroke-opacity="0.3" stroke-miterlimit="10" d="M 252.195312 88.554688 L 252.195312 340.558594 " transform="matrix(1, 0, 0, -1, 0, 360)"/>
</g>
<g fill="rgb(14.99939%, 14.99939%, 14.99939%)" fill-opacity="1">
<use xlink:href="#glyph-0-2" x="247.609062" y="296.118075"/>
</g>
<g clip-path="url(#clip-3)">
<path fill="none" stroke-width="1.5" stroke-linecap="round" stroke-linejoin="round" stroke="rgb(79.998779%, 79.998779%, 79.998779%)" stroke-opacity="0.3" stroke-miterlimit="10" d="M 325.089844 88.554688 L 325.089844 340.558594 " transform="matrix(1, 0, 0, -1, 0, 360)"/>
</g>
<g fill="rgb(14.99939%, 14.99939%, 14.99939%)" fill-opacity="1">
<use xlink:href="#glyph-0-3" x="320.502244" y="296.118075"/>
</g>
<g clip-path="url(#clip-4)">
<path fill="none" stroke-width="1.5" stroke-linecap="round" stroke-linejoin="round" stroke="rgb(79.998779%, 79.998779%, 79.998779%)" stroke-opacity="0.3" stroke-miterlimit="10" d="M 397.980469 88.554688 L 397.980469 340.558594 " transform="matrix(1, 0, 0, -1, 0, 360)"/>
</g>
<g fill="rgb(14.99939%, 14.99939%, 14.99939%)" fill-opacity="1">
<use xlink:href="#glyph-0-4" x="388.809489" y="296.118075"/>
<use xlink:href="#glyph-0-5" x="397.983489" y="296.118075"/>
</g>
<g fill="rgb(14.99939%, 14.99939%, 14.99939%)" fill-opacity="1">
<use xlink:href="#glyph-1-0" x="241.195" y="313.686825"/>
</g>
<g fill="rgb(14.99939%, 14.99939%, 14.99939%)" fill-opacity="1">
<use xlink:href="#glyph-2-0" x="252.729961" y="316.672762"/>
</g>
<g fill="rgb(14.99939%, 14.99939%, 14.99939%)" fill-opacity="1">
<use xlink:href="#glyph-1-1" x="245.195" y="335.175262"/>
</g>
<path fill-rule="nonzero" fill="rgb(14.99939%, 14.99939%, 14.99939%)" fill-opacity="1" d="M 241.195312 323.355469 L 259.863281 323.355469 L 259.863281 321.730469 L 241.195312 321.730469 Z M 241.195312 323.355469 "/>
<g clip-path="url(#clip-5)">
<path fill="none" stroke-width="1.5" stroke-linecap="round" stroke-linejoin="round" stroke="rgb(79.998779%, 79.998779%, 79.998779%)" stroke-opacity="0.3" stroke-miterlimit="10" d="M 91.828125 111.027344 L 412.558594 111.027344 " transform="matrix(1, 0, 0, -1, 0, 360)"/>
</g>
<g fill="rgb(14.99939%, 14.99939%, 14.99939%)" fill-opacity="1">
<use xlink:href="#glyph-0-5" x="56.408125" y="255.058506"/>
<use xlink:href="#glyph-0-6" x="65.582125" y="255.058506"/>
<use xlink:href="#glyph-0-4" x="70.169125" y="255.058506"/>
</g>
<g clip-path="url(#clip-6)">
<path fill="none" stroke-width="1.5" stroke-linecap="round" stroke-linejoin="round" stroke="rgb(79.998779%, 79.998779%, 79.998779%)" stroke-opacity="0.3" stroke-miterlimit="10" d="M 91.828125 181.589844 L 412.558594 181.589844 " transform="matrix(1, 0, 0, -1, 0, 360)"/>
</g>
<g fill="rgb(14.99939%, 14.99939%, 14.99939%)" fill-opacity="1">
<use xlink:href="#glyph-0-5" x="56.408125" y="184.494258"/>
<use xlink:href="#glyph-0-6" x="65.582125" y="184.494258"/>
<use xlink:href="#glyph-0-0" x="70.169125" y="184.494258"/>
</g>
<g clip-path="url(#clip-7)">
<path fill="none" stroke-width="1.5" stroke-linecap="round" stroke-linejoin="round" stroke="rgb(79.998779%, 79.998779%, 79.998779%)" stroke-opacity="0.3" stroke-miterlimit="10" d="M 91.828125 252.15625 L 412.558594 252.15625 " transform="matrix(1, 0, 0, -1, 0, 360)"/>
</g>
<g fill="rgb(14.99939%, 14.99939%, 14.99939%)" fill-opacity="1">
<use xlink:href="#glyph-0-5" x="56.408125" y="113.93001"/>
<use xlink:href="#glyph-0-6" x="65.582125" y="113.93001"/>
<use xlink:href="#glyph-0-7" x="70.169125" y="113.93001"/>
</g>
<g clip-path="url(#clip-8)">
<path fill="none" stroke-width="1.5" stroke-linecap="round" stroke-linejoin="round" stroke="rgb(79.998779%, 79.998779%, 79.998779%)" stroke-opacity="0.3" stroke-miterlimit="10" d="M 91.828125 322.71875 L 412.558594 322.71875 " transform="matrix(1, 0, 0, -1, 0, 360)"/>
</g>
<g fill="rgb(14.99939%, 14.99939%, 14.99939%)" fill-opacity="1">
<use xlink:href="#glyph-0-5" x="56.408125" y="43.365761"/>
<use xlink:href="#glyph-0-6" x="65.582125" y="43.365761"/>
<use xlink:href="#glyph-0-1" x="70.169125" y="43.365761"/>
</g>
<g fill="rgb(14.99939%, 14.99939%, 14.99939%)" fill-opacity="1">
<use xlink:href="#glyph-3-0" x="47.23625" y="211.177475"/>
<use xlink:href="#glyph-3-1" x="47.23625" y="193.835475"/>
<use xlink:href="#glyph-3-2" x="47.23625" y="180.835475"/>
<use xlink:href="#glyph-3-3" x="47.23625" y="167.835475"/>
<use xlink:href="#glyph-3-4" x="47.23625" y="153.379475"/>
<use xlink:href="#glyph-3-4" x="47.23625" y="140.379475"/>
<use xlink:href="#glyph-3-5" x="47.23625" y="127.379475"/>
<use xlink:href="#glyph-3-6" x="47.23625" y="120.151475"/>
<use xlink:href="#glyph-3-7" x="47.23625" y="111.493475"/>
<use xlink:href="#glyph-3-4" x="47.23625" y="105.721475"/>
<use xlink:href="#glyph-3-8" x="47.23625" y="92.721475"/>
</g>
<path fill-rule="nonzero" fill="rgb(24.423218%, 20.677185%, 41.984558%)" fill-opacity="0.25" stroke-width="1.5" stroke-linecap="butt" stroke-linejoin="round" stroke="rgb(24.423218%, 20.677185%, 41.984558%)" stroke-opacity="0.25" stroke-miterlimit="10" d="M 106.410156 292.394531 L 106.410156 259.21875 L 142.855469 203.765625 L 179.300781 173.292969 L 215.75 150.234375 L 252.195312 134.582031 L 288.640625 122.957031 L 325.089844 113.421875 L 361.535156 106.925781 L 397.980469 100.007812 L 397.980469 109.203125 L 361.535156 116.9375 L 325.089844 124.554688 L 288.640625 134.917969 L 252.195312 150.285156 L 215.75 163.808594 L 179.300781 190.46875 L 142.855469 227.429688 Z M 106.410156 292.394531 " transform="matrix(1, 0, 0, -1, 0, 360)"/>
<path fill-rule="nonzero" fill="rgb(20.692444%, 48.200989%, 63.812256%)" fill-opacity="0.25" stroke-width="1.5" stroke-linecap="butt" stroke-linejoin="round" stroke="rgb(20.692444%, 48.200989%, 63.812256%)" stroke-opacity="0.25" stroke-miterlimit="10" d="M 106.410156 306.589844 L 106.410156 269.332031 L 142.855469 219.234375 L 179.300781 188.046875 L 215.75 166.878906 L 252.195312 151.722656 L 288.640625 138.828125 L 325.089844 132.277344 L 361.535156 123.976562 L 397.980469 117.832031 L 397.980469 130.761719 L 361.535156 137.578125 L 325.089844 147.445312 L 288.640625 157.179688 L 252.195312 168.539062 L 215.75 186.722656 L 179.300781 212.28125 L 142.855469 246.117188 Z M 106.410156 306.589844 " transform="matrix(1, 0, 0, -1, 0, 360)"/>
<path fill-rule="nonzero" fill="rgb(29.214478%, 76.142883%, 67.886353%)" fill-opacity="0.25" stroke-width="1.5" stroke-linecap="butt" stroke-linejoin="round" stroke="rgb(29.214478%, 76.142883%, 67.886353%)" stroke-opacity="0.25" stroke-miterlimit="10" d="M 106.410156 329.105469 L 106.410156 289.800781 L 142.855469 238.957031 L 179.300781 211.515625 L 215.75 194.707031 L 252.195312 175.0625 L 288.640625 166.210938 L 325.089844 156.480469 L 361.535156 149.015625 L 397.980469 141.179688 L 397.980469 161.8125 L 361.535156 168.140625 L 325.089844 174.867188 L 288.640625 186.933594 L 252.195312 197.796875 L 215.75 217.058594 L 179.300781 242.109375 L 142.855469 272.4375 Z M 106.410156 329.105469 " transform="matrix(1, 0, 0, -1, 0, 360)"/>
<path fill="none" stroke-width="1.875" stroke-linecap="square" stroke-linejoin="miter" stroke="rgb(79.998779%, 79.998779%, 79.998779%)" stroke-opacity="1" stroke-miterlimit="10" d="M 91.828125 88.554688 L 91.828125 340.558594 " transform="matrix(1, 0, 0, -1, 0, 360)"/>
<path fill="none" stroke-width="1.875" stroke-linecap="square" stroke-linejoin="miter" stroke="rgb(79.998779%, 79.998779%, 79.998779%)" stroke-opacity="1" stroke-miterlimit="10" d="M 412.558594 88.554688 L 412.558594 340.558594 " transform="matrix(1, 0, 0, -1, 0, 360)"/>
<path fill="none" stroke-width="1.875" stroke-linecap="square" stroke-linejoin="miter" stroke="rgb(79.998779%, 79.998779%, 79.998779%)" stroke-opacity="1" stroke-miterlimit="10" d="M 91.828125 88.554688 L 412.558594 88.554688 " transform="matrix(1, 0, 0, -1, 0, 360)"/>
<path fill="none" stroke-width="1.875" stroke-linecap="square" stroke-linejoin="miter" stroke="rgb(79.998779%, 79.998779%, 79.998779%)" stroke-opacity="1" stroke-miterlimit="10" d="M 91.828125 340.558594 L 412.558594 340.558594 " transform="matrix(1, 0, 0, -1, 0, 360)"/>
<path fill="none" stroke-width="6" stroke-linecap="round" stroke-linejoin="round" stroke="rgb(24.423218%, 20.677185%, 41.984558%)" stroke-opacity="1" stroke-miterlimit="10" d="M 106.410156 275.675781 L 142.855469 216.875 L 179.300781 181.589844 L 215.75 158.070312 L 252.195312 141.269531 L 288.640625 128.667969 L 325.089844 118.867188 L 361.535156 111.027344 L 397.980469 104.613281 " transform="matrix(1, 0, 0, -1, 0, 360)"/>
<path fill="none" stroke-width="6" stroke-linecap="round" stroke-linejoin="round" stroke="rgb(20.692444%, 48.200989%, 63.812256%)" stroke-opacity="1" stroke-miterlimit="10" d="M 106.410156 289.609375 L 142.855469 233.957031 L 179.300781 200.28125 L 215.75 177.539062 L 252.195312 161.058594 L 288.640625 148.503906 L 325.089844 138.589844 L 361.535156 130.535156 L 397.980469 123.847656 " transform="matrix(1, 0, 0, -1, 0, 360)"/>
<path fill="none" stroke-width="6" stroke-linecap="round" stroke-linejoin="round" stroke="rgb(29.214478%, 76.142883%, 67.886353%)" stroke-opacity="1" stroke-miterlimit="10" d="M 106.410156 309.070312 L 142.855469 257.34375 L 179.300781 225.652344 L 215.75 203.925781 L 252.195312 187.925781 L 288.640625 175.554688 L 325.089844 165.644531 L 361.535156 157.480469 L 397.980469 150.617188 " transform="matrix(1, 0, 0, -1, 0, 360)"/>
<path fill-rule="nonzero" fill="rgb(24.423218%, 20.677185%, 41.984558%)" fill-opacity="1" stroke-width="0.946573" stroke-linecap="butt" stroke-linejoin="round" stroke="rgb(100%, 100%, 100%)" stroke-opacity="1" stroke-miterlimit="10" d="M 0.00151989 -5.917001 C 1.567926 -5.917001 3.075739 -5.292001 4.185114 -4.182626 C 5.294489 -3.073251 5.915582 -1.569344 5.915582 0.000968155 C 5.915582 1.567374 5.294489 3.075187 4.185114 4.184562 C 3.075739 5.293937 1.567926 5.915031 0.00151989 5.915031 C -1.568793 5.915031 -3.072699 5.293937 -4.182074 4.184562 C -5.291449 3.075187 -5.916449 1.567374 -5.916449 0.000968155 C -5.916449 -1.569344 -5.291449 -3.073251 -4.182074 -4.182626 C -3.072699 -5.292001 -1.568793 -5.917001 0.00151989 -5.917001 Z M 0.00151989 -5.917001 " transform="matrix(1, 0, 0, -1, 106.408636, 84.192374)"/>
<path fill-rule="nonzero" fill="rgb(24.423218%, 20.677185%, 41.984558%)" fill-opacity="1" stroke-width="0.946573" stroke-linecap="butt" stroke-linejoin="round" stroke="rgb(100%, 100%, 100%)" stroke-opacity="1" stroke-miterlimit="10" d="M 0.000241477 -5.916872 C 1.570554 -5.916872 3.07446 -5.291872 4.183835 -4.182497 C 5.29321 -3.073122 5.914304 -1.569215 5.914304 0.00109711 C 5.914304 1.567503 5.29321 3.075316 4.183835 4.184691 C 3.07446 5.294066 1.570554 5.91516 0.000241477 5.91516 C -1.570071 5.91516 -3.073977 5.294066 -4.183352 4.184691 C -5.292727 3.075316 -5.917727 1.567503 -5.917727 0.00109711 C -5.917727 -1.569215 -5.292727 -3.073122 -4.183352 -4.182497 C -3.073977 -5.291872 -1.570071 -5.916872 0.000241477 -5.916872 Z M 0.000241477 -5.916872 " transform="matrix(1, 0, 0, -1, 142.855227, 144.403441)"/>
<path fill-rule="nonzero" fill="rgb(24.423218%, 20.677185%, 41.984558%)" fill-opacity="1" stroke-width="0.946573" stroke-linecap="butt" stroke-linejoin="round" stroke="rgb(100%, 100%, 100%)" stroke-opacity="1" stroke-miterlimit="10" d="M -0.00103693 -5.916206 C 1.569276 -5.916206 3.073182 -5.291206 4.182557 -4.181831 C 5.291932 -3.072456 5.916932 -1.56855 5.916932 0.00176296 C 5.916932 1.568169 5.291932 3.072075 4.182557 4.18145 C 3.073182 5.290825 1.569276 5.915825 -0.00103693 5.915825 C -1.567443 5.915825 -3.075256 5.290825 -4.184631 4.18145 C -5.294006 3.072075 -5.915099 1.568169 -5.915099 0.00176296 C -5.915099 -1.56855 -5.294006 -3.072456 -4.184631 -4.181831 C -3.075256 -5.291206 -1.567443 -5.916206 -0.00103693 -5.916206 Z M -0.00103693 -5.916206 " transform="matrix(1, 0, 0, -1, 179.301818, 178.11895)"/>
<path fill-rule="nonzero" fill="rgb(24.423218%, 20.677185%, 41.984558%)" fill-opacity="1" stroke-width="0.946573" stroke-linecap="butt" stroke-linejoin="round" stroke="rgb(100%, 100%, 100%)" stroke-opacity="1" stroke-miterlimit="10" d="M 0.00159091 -5.916018 C 1.567997 -5.916018 3.07581 -5.291018 4.185185 -4.181643 C 5.29456 -3.072268 5.915653 -1.568362 5.915653 0.00195058 C 5.915653 1.568357 5.29456 3.072263 4.185185 4.181638 C 3.07581 5.291013 1.567997 5.916013 0.00159091 5.916013 C -1.568722 5.916013 -3.072628 5.291013 -4.182003 4.181638 C -5.291378 3.072263 -5.916378 1.568357 -5.916378 0.00195058 C -5.916378 -1.568362 -5.291378 -3.072268 -4.182003 -4.181643 C -3.072628 -5.291018 -1.568722 -5.916018 0.00159091 -5.916018 Z M 0.00159091 -5.916018 " transform="matrix(1, 0, 0, -1, 215.748409, 202.978513)"/>
<path fill-rule="nonzero" fill="rgb(24.423218%, 20.677185%, 41.984558%)" fill-opacity="1" stroke-width="0.946573" stroke-linecap="butt" stroke-linejoin="round" stroke="rgb(100%, 100%, 100%)" stroke-opacity="1" stroke-miterlimit="10" d="M 0.0003125 -5.914256 C 1.570625 -5.914256 3.074531 -5.293162 4.183906 -4.183787 C 5.293281 -3.074412 5.914375 -1.570506 5.914375 -0.000193386 C 5.914375 1.570119 5.293281 3.074025 4.183906 4.1834 C 3.074531 5.292775 1.570625 5.917775 0.0003125 5.917775 C -1.57 5.917775 -3.073906 5.292775 -4.183281 4.1834 C -5.292656 3.074025 -5.917656 1.570119 -5.917656 -0.000193386 C -5.917656 -1.570506 -5.292656 -3.074412 -4.183281 -4.183787 C -3.073906 -5.293162 -1.57 -5.914256 0.0003125 -5.914256 Z M 0.0003125 -5.914256 " transform="matrix(1, 0, 0, -1, 252.195, 217.566213)"/>
<path fill-rule="nonzero" fill="rgb(24.423218%, 20.677185%, 41.984558%)" fill-opacity="1" stroke-width="0.946573" stroke-linecap="butt" stroke-linejoin="round" stroke="rgb(100%, 100%, 100%)" stroke-opacity="1" stroke-miterlimit="10" d="M -0.000965909 -5.917931 C 1.569347 -5.917931 3.073253 -5.292931 4.182628 -4.183556 C 5.292003 -3.074181 5.917003 -1.570274 5.917003 0.0000382149 C 5.917003 1.570351 5.292003 3.074257 4.182628 4.183632 C 3.073253 5.293007 1.569347 5.918007 -0.000965909 5.918007 C -1.567372 5.918007 -3.075185 5.293007 -4.18456 4.183632 C -5.293935 3.074257 -5.915028 1.570351 -5.915028 0.0000382149 C -5.915028 -1.570274 -5.293935 -3.074181 -4.18456 -4.183556 C -3.075185 -5.292931 -1.567372 -5.917931 -0.000965909 -5.917931 Z M -0.000965909 -5.917931 " transform="matrix(1, 0, 0, -1, 288.641591, 231.062538)"/>
<path fill-rule="nonzero" fill="rgb(24.423218%, 20.677185%, 41.984558%)" fill-opacity="1" stroke-width="0.946573" stroke-linecap="butt" stroke-linejoin="round" stroke="rgb(100%, 100%, 100%)" stroke-opacity="1" stroke-miterlimit="10" d="M 0.00166193 -5.917156 C 1.568068 -5.917156 3.071974 -5.292156 4.181349 -4.182781 C 5.294631 -3.073406 5.915724 -1.569499 5.915724 0.000813242 C 5.915724 1.567219 5.294631 3.075032 4.181349 4.184407 C 3.071974 5.293782 1.568068 5.914876 0.00166193 5.914876 C -1.568651 5.914876 -3.072557 5.293782 -4.181932 4.184407 C -5.291307 3.075032 -5.916307 1.567219 -5.916307 0.000813242 C -5.916307 -1.569499 -5.291307 -3.073406 -4.181932 -4.182781 C -3.072557 -5.292156 -1.568651 -5.917156 0.00166193 -5.917156 Z M 0.00166193 -5.917156 " transform="matrix(1, 0, 0, -1, 325.088182, 241.012532)"/>
<path fill-rule="nonzero" fill="rgb(24.423218%, 20.677185%, 41.984558%)" fill-opacity="1" stroke-width="0.946573" stroke-linecap="butt" stroke-linejoin="round" stroke="rgb(100%, 100%, 100%)" stroke-opacity="1" stroke-miterlimit="10" d="M 0.000383523 -5.916406 C 1.570696 -5.916406 3.074602 -5.291406 4.183977 -4.182031 C 5.293352 -3.072656 5.914446 -1.56875 5.914446 0.00156228 C 5.914446 1.567969 5.293352 3.075781 4.183977 4.185156 C 3.074602 5.294531 1.570696 5.915625 0.000383523 5.915625 C -1.569929 5.915625 -3.073835 5.294531 -4.18321 4.185156 C -5.292585 3.075781 -5.917585 1.567969 -5.917585 0.00156228 C -5.917585 -1.56875 -5.292585 -3.072656 -4.18321 -4.182031 C -3.073835 -5.291406 -1.569929 -5.916406 0.000383523 -5.916406 Z M 0.000383523 -5.916406 " transform="matrix(1, 0, 0, -1, 361.534773, 248.067969)"/>
<path fill-rule="nonzero" fill="rgb(24.423218%, 20.677185%, 41.984558%)" fill-opacity="1" stroke-width="0.946573" stroke-linecap="butt" stroke-linejoin="round" stroke="rgb(100%, 100%, 100%)" stroke-opacity="1" stroke-miterlimit="10" d="M -0.000894886 -5.914676 C 1.569418 -5.914676 3.073324 -5.293582 4.182699 -4.184207 C 5.292074 -3.074832 5.917074 -1.56702 5.917074 -0.000613597 C 5.917074 1.569699 5.292074 3.073605 4.182699 4.18298 C 3.073324 5.292355 1.569418 5.917355 -0.000894886 5.917355 C -1.567301 5.917355 -3.075114 5.292355 -4.184489 4.18298 C -5.293864 3.073605 -5.914957 1.569699 -5.914957 -0.000613597 C -5.914957 -1.56702 -5.293864 -3.074832 -4.184489 -4.184207 C -3.075114 -5.293582 -1.567301 -5.914676 -0.000894886 -5.914676 Z M -0.000894886 -5.914676 " transform="matrix(1, 0, 0, -1, 397.981364, 255.393918)"/>
<path fill-rule="nonzero" fill="rgb(20.692444%, 48.200989%, 63.812256%)" fill-opacity="1" stroke-width="0.946573" stroke-linecap="butt" stroke-linejoin="round" stroke="rgb(100%, 100%, 100%)" stroke-opacity="1" stroke-miterlimit="10" d="M 0.00151989 -5.914719 C 1.567926 -5.914719 3.075739 -5.293625 4.185114 -4.18425 C 5.294489 -3.074875 5.915582 -1.567063 5.915582 -0.000656417 C 5.915582 1.569656 5.294489 3.073562 4.185114 4.182937 C 3.075739 5.292312 1.567926 5.917312 0.00151989 5.917312 C -1.568793 5.917312 -3.072699 5.292312 -4.182074 4.182937 C -5.291449 3.073562 -5.916449 1.569656 -5.916449 -0.000656417 C -5.916449 -1.567063 -5.291449 -3.074875 -4.182074 -4.18425 C -3.072699 -5.293625 -1.568793 -5.914719 0.00151989 -5.914719 Z M 0.00151989 -5.914719 " transform="matrix(1, 0, 0, -1, 106.408636, 72.038406)"/>
<path fill-rule="nonzero" fill="rgb(20.692444%, 48.200989%, 63.812256%)" fill-opacity="1" stroke-width="0.946573" stroke-linecap="butt" stroke-linejoin="round" stroke="rgb(100%, 100%, 100%)" stroke-opacity="1" stroke-miterlimit="10" d="M 0.000241477 -5.917113 C 1.570554 -5.917113 3.07446 -5.292113 4.183835 -4.182738 C 5.29321 -3.073363 5.914304 -1.569456 5.914304 0.000856085 C 5.914304 1.567262 5.29321 3.075075 4.183835 4.18445 C 3.07446 5.293825 1.570554 5.914919 0.000241477 5.914919 C -1.570071 5.914919 -3.073977 5.293825 -4.183352 4.18445 C -5.292727 3.075075 -5.917727 1.567262 -5.917727 0.000856085 C -5.917727 -1.569456 -5.292727 -3.073363 -4.183352 -4.182738 C -3.073977 -5.292113 -1.570071 -5.917113 0.000241477 -5.917113 Z M 0.000241477 -5.917113 " transform="matrix(1, 0, 0, -1, 142.855227, 127.325075)"/>
<path fill-rule="nonzero" fill="rgb(20.692444%, 48.200989%, 63.812256%)" fill-opacity="1" stroke-width="0.946573" stroke-linecap="butt" stroke-linejoin="round" stroke="rgb(100%, 100%, 100%)" stroke-opacity="1" stroke-miterlimit="10" d="M -0.00103693 -5.917605 C 1.569276 -5.917605 3.073182 -5.292605 4.182557 -4.18323 C 5.291932 -3.073855 5.916932 -1.569949 5.916932 0.00036359 C 5.916932 1.570676 5.291932 3.074582 4.182557 4.183957 C 3.073182 5.293332 1.569276 5.914426 -0.00103693 5.914426 C -1.567443 5.914426 -3.075256 5.293332 -4.184631 4.183957 C -5.294006 3.074582 -5.915099 1.570676 -5.915099 0.00036359 C -5.915099 -1.569949 -5.294006 -3.073855 -4.184631 -4.18323 C -3.075256 -5.292605 -1.567443 -5.917605 -0.00103693 -5.917605 Z M -0.00103693 -5.917605 " transform="matrix(1, 0, 0, -1, 179.301818, 159.836301)"/>
<path fill-rule="nonzero" fill="rgb(20.692444%, 48.200989%, 63.812256%)" fill-opacity="1" stroke-width="0.946573" stroke-linecap="butt" stroke-linejoin="round" stroke="rgb(100%, 100%, 100%)" stroke-opacity="1" stroke-miterlimit="10" d="M 0.00159091 -5.917689 C 1.567997 -5.917689 3.07581 -5.292689 4.185185 -4.183314 C 5.29456 -3.073939 5.915653 -1.570033 5.915653 0.000279982 C 5.915653 1.570592 5.29456 3.074499 4.185185 4.183874 C 3.07581 5.293249 1.567997 5.914342 0.00159091 5.914342 C -1.568722 5.914342 -3.072628 5.293249 -4.182003 4.183874 C -5.291378 3.074499 -5.916378 1.570592 -5.916378 0.000279982 C -5.916378 -1.570033 -5.291378 -3.073939 -4.182003 -4.183314 C -3.072628 -5.292689 -1.568722 -5.917689 0.00159091 -5.917689 Z M 0.00159091 -5.917689 " transform="matrix(1, 0, 0, -1, 215.748409, 183.199499)"/>
<path fill-rule="nonzero" fill="rgb(20.692444%, 48.200989%, 63.812256%)" fill-opacity="1" stroke-width="0.946573" stroke-linecap="butt" stroke-linejoin="round" stroke="rgb(100%, 100%, 100%)" stroke-opacity="1" stroke-miterlimit="10" d="M 0.0003125 -5.916068 C 1.570625 -5.916068 3.074531 -5.291068 4.183906 -4.181693 C 5.293281 -3.072318 5.914375 -1.568412 5.914375 0.00190072 C 5.914375 1.568307 5.293281 3.072213 4.183906 4.181588 C 3.074531 5.290963 1.570625 5.915963 0.0003125 5.915963 C -1.57 5.915963 -3.073906 5.290963 -4.183281 4.181588 C -5.292656 3.072213 -5.917656 1.568307 -5.917656 0.00190072 C -5.917656 -1.568412 -5.292656 -3.072318 -4.183281 -4.181693 C -3.073906 -5.291068 -1.57 -5.916068 0.0003125 -5.916068 Z M 0.0003125 -5.916068 " transform="matrix(1, 0, 0, -1, 252.195, 199.869088)"/>
<path fill-rule="nonzero" fill="rgb(20.692444%, 48.200989%, 63.812256%)" fill-opacity="1" stroke-width="0.946573" stroke-linecap="butt" stroke-linejoin="round" stroke="rgb(100%, 100%, 100%)" stroke-opacity="1" stroke-miterlimit="10" d="M -0.000965909 -5.914571 C 1.569347 -5.914571 3.073253 -5.293477 4.182628 -4.184102 C 5.292003 -3.074727 5.917003 -1.570821 5.917003 -0.000508206 C 5.917003 1.569804 5.292003 3.073711 4.182628 4.183086 C 3.073253 5.292461 1.569347 5.917461 -0.000965909 5.917461 C -1.567372 5.917461 -3.075185 5.292461 -4.18456 4.183086 C -5.293935 3.073711 -5.915028 1.569804 -5.915028 -0.000508206 C -5.915028 -1.570821 -5.293935 -3.074727 -4.18456 -4.184102 C -3.075185 -5.293477 -1.567372 -5.914571 -0.000965909 -5.914571 Z M -0.000965909 -5.914571 " transform="matrix(1, 0, 0, -1, 288.641591, 211.995586)"/>
<path fill-rule="nonzero" fill="rgb(20.692444%, 48.200989%, 63.812256%)" fill-opacity="1" stroke-width="0.946573" stroke-linecap="butt" stroke-linejoin="round" stroke="rgb(100%, 100%, 100%)" stroke-opacity="1" stroke-miterlimit="10" d="M 0.00166193 -5.916273 C 1.568068 -5.916273 3.071974 -5.291273 4.181349 -4.181898 C 5.294631 -3.072523 5.915724 -1.568616 5.915724 0.00169619 C 5.915724 1.568102 5.294631 3.072009 4.181349 4.181384 C 3.071974 5.294665 1.568068 5.915759 0.00166193 5.915759 C -1.568651 5.915759 -3.072557 5.294665 -4.181932 4.181384 C -5.291307 3.072009 -5.916307 1.568102 -5.916307 0.00169619 C -5.916307 -1.568616 -5.291307 -3.072523 -4.181932 -4.181898 C -3.072557 -5.291273 -1.568651 -5.916273 0.00166193 -5.916273 Z M 0.00166193 -5.916273 " transform="matrix(1, 0, 0, -1, 325.088182, 220.138415)"/>
<path fill-rule="nonzero" fill="rgb(20.692444%, 48.200989%, 63.812256%)" fill-opacity="1" stroke-width="0.946573" stroke-linecap="butt" stroke-linejoin="round" stroke="rgb(100%, 100%, 100%)" stroke-opacity="1" stroke-miterlimit="10" d="M 0.000383523 -5.917664 C 1.570696 -5.917664 3.074602 -5.292664 4.183977 -4.183289 C 5.293352 -3.073914 5.914446 -1.570008 5.914446 0.000304854 C 5.914446 1.570617 5.293352 3.074524 4.183977 4.183899 C 3.074602 5.293274 1.570696 5.914367 0.000383523 5.914367 C -1.569929 5.914367 -3.073835 5.293274 -4.18321 4.183899 C -5.292585 3.074524 -5.917585 1.570617 -5.917585 0.000304854 C -5.917585 -1.570008 -5.292585 -3.073914 -4.18321 -4.183289 C -3.073835 -5.292664 -1.569929 -5.917664 0.000383523 -5.917664 Z M 0.000383523 -5.917664 " transform="matrix(1, 0, 0, -1, 361.534773, 229.222961)"/>
<path fill-rule="nonzero" fill="rgb(20.692444%, 48.200989%, 63.812256%)" fill-opacity="1" stroke-width="0.946573" stroke-linecap="butt" stroke-linejoin="round" stroke="rgb(100%, 100%, 100%)" stroke-opacity="1" stroke-miterlimit="10" d="M -0.000894886 -5.917572 C 1.569418 -5.917572 3.073324 -5.292572 4.182699 -4.183197 C 5.292074 -3.073822 5.917074 -1.569916 5.917074 0.000396714 C 5.917074 1.570709 5.292074 3.074615 4.182699 4.18399 C 3.073324 5.293365 1.569418 5.914459 -0.000894886 5.914459 C -1.567301 5.914459 -3.075114 5.293365 -4.184489 4.18399 C -5.293864 3.074615 -5.914957 1.570709 -5.914957 0.000396714 C -5.914957 -1.569916 -5.293864 -3.073822 -4.184489 -4.183197 C -3.075114 -5.292572 -1.567301 -5.917572 -0.000894886 -5.917572 Z M -0.000894886 -5.917572 " transform="matrix(1, 0, 0, -1, 397.981364, 235.703522)"/>
<path fill-rule="nonzero" fill="rgb(29.214478%, 76.142883%, 67.886353%)" fill-opacity="1" stroke-width="0.946573" stroke-linecap="butt" stroke-linejoin="round" stroke="rgb(100%, 100%, 100%)" stroke-opacity="1" stroke-miterlimit="10" d="M 0.00151989 -5.917181 C 1.567926 -5.917181 3.075739 -5.292181 4.185114 -4.182806 C 5.294489 -3.073431 5.915582 -1.569525 5.915582 0.000787939 C 5.915582 1.567194 5.294489 3.075007 4.185114 4.184382 C 3.075739 5.293757 1.567926 5.91485 0.00151989 5.91485 C -1.568793 5.91485 -3.072699 5.293757 -4.182074 4.184382 C -5.291449 3.075007 -5.916449 1.567194 -5.916449 0.000787939 C -5.916449 -1.569525 -5.291449 -3.073431 -4.182074 -4.182806 C -3.072699 -5.292181 -1.568793 -5.917181 0.00151989 -5.917181 Z M 0.00151989 -5.917181 " transform="matrix(1, 0, 0, -1, 106.408636, 50.547663)"/>
<path fill-rule="nonzero" fill="rgb(29.214478%, 76.142883%, 67.886353%)" fill-opacity="1" stroke-width="0.946573" stroke-linecap="butt" stroke-linejoin="round" stroke="rgb(100%, 100%, 100%)" stroke-opacity="1" stroke-miterlimit="10" d="M 0.000241477 -5.916131 C 1.570554 -5.916131 3.07446 -5.291131 4.183835 -4.181756 C 5.29321 -3.072381 5.914304 -1.568475 5.914304 0.00183755 C 5.914304 1.568244 5.29321 3.07215 4.183835 4.181525 C 3.07446 5.2909 1.570554 5.9159 0.000241477 5.9159 C -1.570071 5.9159 -3.073977 5.2909 -4.183352 4.181525 C -5.292727 3.07215 -5.917727 1.568244 -5.917727 0.00183755 C -5.917727 -1.568475 -5.292727 -3.072381 -4.183352 -4.181756 C -3.073977 -5.291131 -1.570071 -5.916131 0.000241477 -5.916131 Z M 0.000241477 -5.916131 " transform="matrix(1, 0, 0, -1, 142.855227, 104.302619)"/>
<path fill-rule="nonzero" fill="rgb(29.214478%, 76.142883%, 67.886353%)" fill-opacity="1" stroke-width="0.946573" stroke-linecap="butt" stroke-linejoin="round" stroke="rgb(100%, 100%, 100%)" stroke-opacity="1" stroke-miterlimit="10" d="M -0.00103693 -5.917227 C 1.569276 -5.917227 3.073182 -5.292227 4.182557 -4.182852 C 5.291932 -3.073477 5.916932 -1.569571 5.916932 0.000741918 C 5.916932 1.567148 5.291932 3.074961 4.182557 4.184336 C 3.073182 5.293711 1.569276 5.914804 -0.00103693 5.914804 C -1.567443 5.914804 -3.075256 5.293711 -4.184631 4.184336 C -5.294006 3.074961 -5.915099 1.567148 -5.915099 0.000741918 C -5.915099 -1.569571 -5.294006 -3.073477 -4.184631 -4.182852 C -3.075256 -5.292227 -1.567443 -5.917227 -0.00103693 -5.917227 Z M -0.00103693 -5.917227 " transform="matrix(1, 0, 0, -1, 179.301818, 133.188242)"/>
<path fill-rule="nonzero" fill="rgb(29.214478%, 76.142883%, 67.886353%)" fill-opacity="1" stroke-width="0.946573" stroke-linecap="butt" stroke-linejoin="round" stroke="rgb(100%, 100%, 100%)" stroke-opacity="1" stroke-miterlimit="10" d="M 0.00159091 -5.914332 C 1.567997 -5.914332 3.07581 -5.293238 4.185185 -4.183863 C 5.29456 -3.074488 5.915653 -1.570582 5.915653 -0.000269491 C 5.915653 1.570043 5.29456 3.073949 4.185185 4.183324 C 3.07581 5.292699 1.567997 5.917699 0.00159091 5.917699 C -1.568722 5.917699 -3.072628 5.292699 -4.182003 4.183324 C -5.291378 3.073949 -5.916378 1.570043 -5.916378 -0.000269491 C -5.916378 -1.570582 -5.291378 -3.074488 -4.182003 -4.183863 C -3.072628 -5.293238 -1.568722 -5.914332 0.00159091 -5.914332 Z M 0.00159091 -5.914332 " transform="matrix(1, 0, 0, -1, 215.748409, 154.116918)"/>
<path fill-rule="nonzero" fill="rgb(29.214478%, 76.142883%, 67.886353%)" fill-opacity="1" stroke-width="0.946573" stroke-linecap="butt" stroke-linejoin="round" stroke="rgb(100%, 100%, 100%)" stroke-opacity="1" stroke-miterlimit="10" d="M 0.0003125 -5.915434 C 1.570625 -5.915434 3.074531 -5.29434 4.183906 -4.184965 C 5.293281 -3.07559 5.914375 -1.567778 5.914375 -0.00137153 C 5.914375 1.568941 5.293281 3.072847 4.183906 4.182222 C 3.074531 5.291597 1.570625 5.916597 0.0003125 5.916597 C -1.57 5.916597 -3.073906 5.291597 -4.183281 4.182222 C -5.292656 3.072847 -5.917656 1.568941 -5.917656 -0.00137153 C -5.917656 -1.567778 -5.292656 -3.07559 -4.183281 -4.184965 C -3.073906 -5.29434 -1.57 -5.915434 0.0003125 -5.915434 Z M 0.0003125 -5.915434 " transform="matrix(1, 0, 0, -1, 252.195, 173.568941)"/>
<path fill-rule="nonzero" fill="rgb(29.214478%, 76.142883%, 67.886353%)" fill-opacity="1" stroke-width="0.946573" stroke-linecap="butt" stroke-linejoin="round" stroke="rgb(100%, 100%, 100%)" stroke-opacity="1" stroke-miterlimit="10" d="M -0.000965909 -5.916478 C 1.569347 -5.916478 3.073253 -5.291478 4.182628 -4.182103 C 5.292003 -3.072728 5.917003 -1.568821 5.917003 0.00149119 C 5.917003 1.567897 5.292003 3.07571 4.182628 4.185085 C 3.073253 5.29446 1.569347 5.915554 -0.000965909 5.915554 C -1.567372 5.915554 -3.075185 5.29446 -4.18456 4.185085 C -5.293935 3.07571 -5.915028 1.567897 -5.915028 0.00149119 C -5.915028 -1.568821 -5.293935 -3.072728 -4.18456 -4.182103 C -3.075185 -5.291478 -1.567372 -5.916478 -0.000965909 -5.916478 Z M -0.000965909 -5.916478 " transform="matrix(1, 0, 0, -1, 288.641591, 183.427272)"/>
<path fill-rule="nonzero" fill="rgb(29.214478%, 76.142883%, 67.886353%)" fill-opacity="1" stroke-width="0.946573" stroke-linecap="butt" stroke-linejoin="round" stroke="rgb(100%, 100%, 100%)" stroke-opacity="1" stroke-miterlimit="10" d="M 0.00166193 -5.916581 C 1.568068 -5.916581 3.071974 -5.291581 4.181349 -4.182206 C 5.294631 -3.072831 5.915724 -1.568925 5.915724 0.00138729 C 5.915724 1.567794 5.294631 3.075606 4.181349 4.184981 C 3.071974 5.294356 1.568068 5.91545 0.00166193 5.91545 C -1.568651 5.91545 -3.072557 5.294356 -4.181932 4.184981 C -5.291307 3.075606 -5.916307 1.567794 -5.916307 0.00138729 C -5.916307 -1.568925 -5.291307 -3.072831 -4.181932 -4.182206 C -3.072557 -5.291581 -1.568651 -5.916581 0.00166193 -5.916581 Z M 0.00166193 -5.916581 " transform="matrix(1, 0, 0, -1, 325.088182, 194.325606)"/>
<path fill-rule="nonzero" fill="rgb(29.214478%, 76.142883%, 67.886353%)" fill-opacity="1" stroke-width="0.946573" stroke-linecap="butt" stroke-linejoin="round" stroke="rgb(100%, 100%, 100%)" stroke-opacity="1" stroke-miterlimit="10" d="M 0.000383523 -5.915125 C 1.570696 -5.915125 3.074602 -5.294031 4.183977 -4.184656 C 5.293352 -3.075281 5.914446 -1.567469 5.914446 -0.00106258 C 5.914446 1.56925 5.293352 3.073156 4.183977 4.182531 C 3.074602 5.291906 1.570696 5.916906 0.000383523 5.916906 C -1.569929 5.916906 -3.073835 5.291906 -4.18321 4.182531 C -5.292585 3.073156 -5.917585 1.56925 -5.917585 -0.00106258 C -5.917585 -1.567469 -5.292585 -3.075281 -4.18321 -4.184656 C -3.073835 -5.294031 -1.569929 -5.915125 0.000383523 -5.915125 Z M 0.000383523 -5.915125 " transform="matrix(1, 0, 0, -1, 361.534773, 201.420812)"/>
<path fill-rule="nonzero" fill="rgb(29.214478%, 76.142883%, 67.886353%)" fill-opacity="1" stroke-width="0.946573" stroke-linecap="butt" stroke-linejoin="round" stroke="rgb(100%, 100%, 100%)" stroke-opacity="1" stroke-miterlimit="10" d="M -0.000894886 -5.917353 C 1.569418 -5.917353 3.073324 -5.292353 4.182699 -4.182978 C 5.292074 -3.073603 5.917074 -1.569697 5.917074 0.000615572 C 5.917074 1.567022 5.292074 3.074834 4.182699 4.184209 C 3.073324 5.293584 1.569418 5.914678 -0.000894886 5.914678 C -1.567301 5.914678 -3.075114 5.293584 -4.184489 4.184209 C -5.293864 3.074834 -5.914957 1.567022 -5.914957 0.000615572 C -5.914957 -1.569697 -5.293864 -3.073603 -4.184489 -4.182978 C -3.075114 -5.292353 -1.567301 -5.917353 -0.000894886 -5.917353 Z M -0.000894886 -5.917353 " transform="matrix(1, 0, 0, -1, 397.981364, 208.504522)"/>
<path fill-rule="nonzero" fill="rgb(100%, 100%, 100%)" fill-opacity="0.6" stroke-width="1.5" stroke-linecap="butt" stroke-linejoin="miter" stroke="rgb(79.998779%, 79.998779%, 79.998779%)" stroke-opacity="0.6" stroke-miterlimit="10" d="M 233.960938 203.359375 L 402.761719 203.359375 C 404.625 203.359375 405.558594 204.292969 405.558594 206.160156 L 405.558594 330.761719 C 405.558594 332.625 404.625 333.558594 402.761719 333.558594 L 233.960938 333.558594 C 232.09375 333.558594 231.160156 332.625 231.160156 330.761719 L 231.160156 206.160156 C 231.160156 204.292969 232.09375 203.359375 233.960938 203.359375 Z M 233.960938 203.359375 " transform="matrix(1, 0, 0, -1, 0, 360)"/>
<path fill="none" stroke-width="6" stroke-linecap="round" stroke-linejoin="round" stroke="rgb(24.423218%, 20.677185%, 41.984558%)" stroke-opacity="1" stroke-miterlimit="10" d="M 236.761719 321.859375 L 264.761719 321.859375 " transform="matrix(1, 0, 0, -1, 0, 360)"/>
<g fill="rgb(14.99939%, 14.99939%, 14.99939%)" fill-opacity="1">
<use xlink:href="#glyph-4-0" x="284.846719" y="44.7275"/>
</g>
<g fill="rgb(14.99939%, 14.99939%, 14.99939%)" fill-opacity="1">
<use xlink:href="#glyph-5-0" x="293.062832" y="42.430625"/>
</g>
<g fill="rgb(14.99939%, 14.99939%, 14.99939%)" fill-opacity="1">
<use xlink:href="#glyph-5-1" x="307.52084" y="42.430625"/>
</g>
<g fill="rgb(14.99939%, 14.99939%, 14.99939%)" fill-opacity="1">
<use xlink:href="#glyph-5-2" x="316.428066" y="42.430625"/>
</g>
<g fill="rgb(14.99939%, 14.99939%, 14.99939%)" fill-opacity="1">
<use xlink:href="#glyph-5-3" x="320.878262" y="42.430625"/>
</g>
<g fill="rgb(14.99939%, 14.99939%, 14.99939%)" fill-opacity="1">
<use xlink:href="#glyph-6-0" x="329.785488" y="42.430625"/>
</g>
<g fill="rgb(14.99939%, 14.99939%, 14.99939%)" fill-opacity="1">
<use xlink:href="#glyph-6-1" x="333.675137" y="42.430625"/>
</g>
<g fill="rgb(14.99939%, 14.99939%, 14.99939%)" fill-opacity="1">
<use xlink:href="#glyph-6-2" x="338.337246" y="42.430625"/>
</g>
<g fill="rgb(14.99939%, 14.99939%, 14.99939%)" fill-opacity="1">
<use xlink:href="#glyph-6-3" x="342.226895" y="42.430625"/>
</g>
<g fill="rgb(14.99939%, 14.99939%, 14.99939%)" fill-opacity="1">
<use xlink:href="#glyph-6-4" x="350.013027" y="42.430625"/>
</g>
<g fill="rgb(14.99939%, 14.99939%, 14.99939%)" fill-opacity="1">
<use xlink:href="#glyph-6-5" x="357.79916" y="42.430625"/>
</g>
<g fill="rgb(14.99939%, 14.99939%, 14.99939%)" fill-opacity="1">
<use xlink:href="#glyph-6-6" x="365.585293" y="42.430625"/>
</g>
<g fill="rgb(14.99939%, 14.99939%, 14.99939%)" fill-opacity="1">
<use xlink:href="#glyph-6-7" x="370.247402" y="42.430625"/>
</g>
<g fill="rgb(14.99939%, 14.99939%, 14.99939%)" fill-opacity="1">
<use xlink:href="#glyph-6-8" x="377.247402" y="42.430625"/>
</g>
<path fill-rule="nonzero" fill="rgb(14.99939%, 14.99939%, 14.99939%)" fill-opacity="1" d="M 278.59375 36.144531 C 278.957031 35.683594 279.515625 35.25 280.300781 34.828125 C 280.59375 34.675781 281.152344 34.589844 281.992188 34.589844 C 282.917969 34.589844 283.589844 34.96875 284.039062 35.695312 C 284.472656 36.4375 284.570312 37.40625 284.347656 38.609375 C 284.109375 39.8125 283.632812 40.792969 282.902344 41.519531 C 282.175781 42.25 281.351562 42.613281 280.425781 42.613281 C 279.867188 42.613281 279.402344 42.5 279.039062 42.289062 C 278.675781 42.082031 278.410156 41.746094 278.242188 41.28125 L 277.445312 45.328125 L 276.183594 45.328125 L 277.484375 38.679688 C 277.683594 37.628906 278.058594 36.789062 278.59375 36.144531 Z M 283.042969 38.609375 C 283.210938 37.683594 283.171875 36.957031 282.890625 36.425781 C 282.609375 35.90625 282.132812 35.640625 281.476562 35.640625 C 280.804688 35.640625 280.230469 35.90625 279.753906 36.425781 C 279.265625 36.957031 278.929688 37.683594 278.761719 38.609375 C 278.578125 39.53125 278.621094 40.261719 278.898438 40.792969 C 279.179688 41.324219 279.640625 41.578125 280.3125 41.578125 C 280.984375 41.578125 281.558594 41.324219 282.035156 40.792969 C 282.511719 40.261719 282.847656 39.53125 283.042969 38.609375 Z M 283.042969 38.609375 "/>
<path fill="none" stroke-width="6" stroke-linecap="round" stroke-linejoin="round" stroke="rgb(20.692444%, 48.200989%, 63.812256%)" stroke-opacity="1" stroke-miterlimit="10" d="M 236.761719 300.859375 L 264.761719 300.859375 " transform="matrix(1, 0, 0, -1, 0, 360)"/>
<g fill="rgb(14.99939%, 14.99939%, 14.99939%)" fill-opacity="1">
<use xlink:href="#glyph-4-0" x="284.846719" y="65.7275"/>
</g>
<g fill="rgb(14.99939%, 14.99939%, 14.99939%)" fill-opacity="1">
<use xlink:href="#glyph-5-0" x="293.062832" y="63.430625"/>
</g>
<g fill="rgb(14.99939%, 14.99939%, 14.99939%)" fill-opacity="1">
<use xlink:href="#glyph-5-1" x="307.52084" y="63.430625"/>
</g>
<g fill="rgb(14.99939%, 14.99939%, 14.99939%)" fill-opacity="1">
<use xlink:href="#glyph-5-2" x="316.428066" y="63.430625"/>
</g>
<g fill="rgb(14.99939%, 14.99939%, 14.99939%)" fill-opacity="1">
<use xlink:href="#glyph-5-4" x="320.878262" y="63.430625"/>
</g>
<g fill="rgb(14.99939%, 14.99939%, 14.99939%)" fill-opacity="1">
<use xlink:href="#glyph-6-0" x="329.785488" y="63.430625"/>
</g>
<g fill="rgb(14.99939%, 14.99939%, 14.99939%)" fill-opacity="1">
<use xlink:href="#glyph-6-1" x="333.675137" y="63.430625"/>
</g>
<g fill="rgb(14.99939%, 14.99939%, 14.99939%)" fill-opacity="1">
<use xlink:href="#glyph-6-2" x="338.337246" y="63.430625"/>
</g>
<g fill="rgb(14.99939%, 14.99939%, 14.99939%)" fill-opacity="1">
<use xlink:href="#glyph-6-3" x="342.226895" y="63.430625"/>
</g>
<g fill="rgb(14.99939%, 14.99939%, 14.99939%)" fill-opacity="1">
<use xlink:href="#glyph-6-4" x="350.013027" y="63.430625"/>
</g>
<g fill="rgb(14.99939%, 14.99939%, 14.99939%)" fill-opacity="1">
<use xlink:href="#glyph-6-5" x="357.79916" y="63.430625"/>
</g>
<g fill="rgb(14.99939%, 14.99939%, 14.99939%)" fill-opacity="1">
<use xlink:href="#glyph-6-6" x="365.585293" y="63.430625"/>
</g>
<g fill="rgb(14.99939%, 14.99939%, 14.99939%)" fill-opacity="1">
<use xlink:href="#glyph-6-7" x="370.247402" y="63.430625"/>
</g>
<g fill="rgb(14.99939%, 14.99939%, 14.99939%)" fill-opacity="1">
<use xlink:href="#glyph-6-8" x="377.247402" y="63.430625"/>
</g>
<path fill-rule="nonzero" fill="rgb(14.99939%, 14.99939%, 14.99939%)" fill-opacity="1" d="M 278.59375 57.144531 C 278.957031 56.683594 279.515625 56.25 280.300781 55.828125 C 280.59375 55.675781 281.152344 55.589844 281.992188 55.589844 C 282.917969 55.589844 283.589844 55.96875 284.039062 56.695312 C 284.472656 57.4375 284.570312 58.40625 284.347656 59.609375 C 284.109375 60.8125 283.632812 61.792969 282.902344 62.519531 C 282.175781 63.25 281.351562 63.613281 280.425781 63.613281 C 279.867188 63.613281 279.402344 63.5 279.039062 63.289062 C 278.675781 63.082031 278.410156 62.746094 278.242188 62.28125 L 277.445312 66.328125 L 276.183594 66.328125 L 277.484375 59.679688 C 277.683594 58.628906 278.058594 57.789062 278.59375 57.144531 Z M 283.042969 59.609375 C 283.210938 58.683594 283.171875 57.957031 282.890625 57.425781 C 282.609375 56.90625 282.132812 56.640625 281.476562 56.640625 C 280.804688 56.640625 280.230469 56.90625 279.753906 57.425781 C 279.265625 57.957031 278.929688 58.683594 278.761719 59.609375 C 278.578125 60.53125 278.621094 61.261719 278.898438 61.792969 C 279.179688 62.324219 279.640625 62.578125 280.3125 62.578125 C 280.984375 62.578125 281.558594 62.324219 282.035156 61.792969 C 282.511719 61.261719 282.847656 60.53125 283.042969 59.609375 Z M 283.042969 59.609375 "/>
<path fill="none" stroke-width="6" stroke-linecap="round" stroke-linejoin="round" stroke="rgb(29.214478%, 76.142883%, 67.886353%)" stroke-opacity="1" stroke-miterlimit="10" d="M 236.761719 279.859375 L 264.761719 279.859375 " transform="matrix(1, 0, 0, -1, 0, 360)"/>
<g fill="rgb(14.99939%, 14.99939%, 14.99939%)" fill-opacity="1">
<use xlink:href="#glyph-4-0" x="284.846719" y="86.7275"/>
</g>
<g fill="rgb(14.99939%, 14.99939%, 14.99939%)" fill-opacity="1">
<use xlink:href="#glyph-5-0" x="293.062832" y="84.430625"/>
</g>
<g fill="rgb(14.99939%, 14.99939%, 14.99939%)" fill-opacity="1">
<use xlink:href="#glyph-5-1" x="307.52084" y="84.430625"/>
</g>
<g fill="rgb(14.99939%, 14.99939%, 14.99939%)" fill-opacity="1">
<use xlink:href="#glyph-5-2" x="316.428066" y="84.430625"/>
</g>
<g fill="rgb(14.99939%, 14.99939%, 14.99939%)" fill-opacity="1">
<use xlink:href="#glyph-5-5" x="320.878262" y="84.430625"/>
</g>
<g fill="rgb(14.99939%, 14.99939%, 14.99939%)" fill-opacity="1">
<use xlink:href="#glyph-6-0" x="329.785488" y="84.430625"/>
</g>
<g fill="rgb(14.99939%, 14.99939%, 14.99939%)" fill-opacity="1">
<use xlink:href="#glyph-6-1" x="333.675137" y="84.430625"/>
</g>
<g fill="rgb(14.99939%, 14.99939%, 14.99939%)" fill-opacity="1">
<use xlink:href="#glyph-6-2" x="338.337246" y="84.430625"/>
</g>
<g fill="rgb(14.99939%, 14.99939%, 14.99939%)" fill-opacity="1">
<use xlink:href="#glyph-6-3" x="342.226895" y="84.430625"/>
</g>
<g fill="rgb(14.99939%, 14.99939%, 14.99939%)" fill-opacity="1">
<use xlink:href="#glyph-6-4" x="350.013027" y="84.430625"/>
</g>
<g fill="rgb(14.99939%, 14.99939%, 14.99939%)" fill-opacity="1">
<use xlink:href="#glyph-6-5" x="357.79916" y="84.430625"/>
</g>
<g fill="rgb(14.99939%, 14.99939%, 14.99939%)" fill-opacity="1">
<use xlink:href="#glyph-6-6" x="365.585293" y="84.430625"/>
</g>
<g fill="rgb(14.99939%, 14.99939%, 14.99939%)" fill-opacity="1">
<use xlink:href="#glyph-6-7" x="370.247402" y="84.430625"/>
</g>
<g fill="rgb(14.99939%, 14.99939%, 14.99939%)" fill-opacity="1">
<use xlink:href="#glyph-6-8" x="377.247402" y="84.430625"/>
</g>
<path fill-rule="nonzero" fill="rgb(14.99939%, 14.99939%, 14.99939%)" fill-opacity="1" d="M 278.59375 78.144531 C 278.957031 77.683594 279.515625 77.25 280.300781 76.828125 C 280.59375 76.675781 281.152344 76.589844 281.992188 76.589844 C 282.917969 76.589844 283.589844 76.96875 284.039062 77.695312 C 284.472656 78.4375 284.570312 79.40625 284.347656 80.609375 C 284.109375 81.8125 283.632812 82.792969 282.902344 83.519531 C 282.175781 84.25 281.351562 84.613281 280.425781 84.613281 C 279.867188 84.613281 279.402344 84.5 279.039062 84.289062 C 278.675781 84.082031 278.410156 83.746094 278.242188 83.28125 L 277.445312 87.328125 L 276.183594 87.328125 L 277.484375 80.679688 C 277.683594 79.628906 278.058594 78.789062 278.59375 78.144531 Z M 283.042969 80.609375 C 283.210938 79.683594 283.171875 78.957031 282.890625 78.425781 C 282.609375 77.90625 282.132812 77.640625 281.476562 77.640625 C 280.804688 77.640625 280.230469 77.90625 279.753906 78.425781 C 279.265625 78.957031 278.929688 79.683594 278.761719 80.609375 C 278.578125 81.53125 278.621094 82.261719 278.898438 82.792969 C 279.179688 83.324219 279.640625 83.578125 280.3125 83.578125 C 280.984375 83.578125 281.558594 83.324219 282.035156 82.792969 C 282.511719 82.261719 282.847656 81.53125 283.042969 80.609375 Z M 283.042969 80.609375 "/>
<path fill-rule="nonzero" fill="rgb(24.423218%, 20.677185%, 41.984558%)" fill-opacity="1" stroke-width="0.946573" stroke-linecap="butt" stroke-linejoin="round" stroke="rgb(100%, 100%, 100%)" stroke-opacity="1" stroke-miterlimit="10" d="M 250.761719 251.71875 C 252.328125 251.71875 253.832031 252.34375 254.941406 253.453125 C 256.050781 254.5625 256.675781 256.066406 256.675781 257.636719 C 256.675781 259.203125 256.050781 260.707031 254.941406 261.816406 C 253.832031 262.925781 252.328125 263.550781 250.761719 263.550781 C 249.191406 263.550781 247.6875 262.925781 246.578125 261.816406 C 245.46875 260.707031 244.84375 259.203125 244.84375 257.636719 C 244.84375 256.066406 245.46875 254.5625 246.578125 253.453125 C 247.6875 252.34375 249.191406 251.71875 250.761719 251.71875 Z M 250.761719 251.71875 " transform="matrix(1, 0, 0, -1, 0, 360)"/>
<g fill="rgb(14.99939%, 14.99939%, 14.99939%)" fill-opacity="1">
<use xlink:href="#glyph-4-0" x="284.846719" y="107.7275"/>
</g>
<g fill="rgb(14.99939%, 14.99939%, 14.99939%)" fill-opacity="1">
<use xlink:href="#glyph-5-0" x="293.062832" y="105.430625"/>
</g>
<g fill="rgb(14.99939%, 14.99939%, 14.99939%)" fill-opacity="1">
<use xlink:href="#glyph-5-1" x="307.52084" y="105.430625"/>
</g>
<g fill="rgb(14.99939%, 14.99939%, 14.99939%)" fill-opacity="1">
<use xlink:href="#glyph-5-2" x="316.428066" y="105.430625"/>
</g>
<g fill="rgb(14.99939%, 14.99939%, 14.99939%)" fill-opacity="1">
<use xlink:href="#glyph-5-3" x="320.878262" y="105.430625"/>
</g>
<g fill="rgb(14.99939%, 14.99939%, 14.99939%)" fill-opacity="1">
<use xlink:href="#glyph-6-0" x="329.785488" y="105.430625"/>
</g>
<g fill="rgb(14.99939%, 14.99939%, 14.99939%)" fill-opacity="1">
<use xlink:href="#glyph-6-1" x="333.675137" y="105.430625"/>
</g>
<g fill="rgb(14.99939%, 14.99939%, 14.99939%)" fill-opacity="1">
<use xlink:href="#glyph-6-4" x="338.337246" y="105.430625"/>
</g>
<g fill="rgb(14.99939%, 14.99939%, 14.99939%)" fill-opacity="1">
<use xlink:href="#glyph-6-9" x="346.123379" y="105.430625"/>
</g>
<g fill="rgb(14.99939%, 14.99939%, 14.99939%)" fill-opacity="1">
<use xlink:href="#glyph-6-10" x="357.785488" y="105.430625"/>
</g>
<g fill="rgb(14.99939%, 14.99939%, 14.99939%)" fill-opacity="1">
<use xlink:href="#glyph-6-11" x="365.571621" y="105.430625"/>
</g>
<g fill="rgb(14.99939%, 14.99939%, 14.99939%)" fill-opacity="1">
<use xlink:href="#glyph-6-6" x="368.681973" y="105.430625"/>
</g>
<g fill="rgb(14.99939%, 14.99939%, 14.99939%)" fill-opacity="1">
<use xlink:href="#glyph-6-11" x="373.344082" y="105.430625"/>
</g>
<g fill="rgb(14.99939%, 14.99939%, 14.99939%)" fill-opacity="1">
<use xlink:href="#glyph-6-12" x="376.454434" y="105.430625"/>
</g>
<g fill="rgb(14.99939%, 14.99939%, 14.99939%)" fill-opacity="1">
<use xlink:href="#glyph-6-13" x="383.454434" y="105.430625"/>
</g>
<g fill="rgb(14.99939%, 14.99939%, 14.99939%)" fill-opacity="1">
<use xlink:href="#glyph-6-14" x="391.240566" y="105.430625"/>
</g>
<g fill="rgb(14.99939%, 14.99939%, 14.99939%)" fill-opacity="1">
<use xlink:href="#glyph-6-8" x="394.350918" y="105.430625"/>
</g>
<path fill-rule="nonzero" fill="rgb(14.99939%, 14.99939%, 14.99939%)" fill-opacity="1" d="M 278.59375 99.144531 C 278.957031 98.683594 279.515625 98.25 280.300781 97.828125 C 280.59375 97.675781 281.152344 97.589844 281.992188 97.589844 C 282.917969 97.589844 283.589844 97.96875 284.039062 98.695312 C 284.472656 99.4375 284.570312 100.40625 284.347656 101.609375 C 284.109375 102.8125 283.632812 103.792969 282.902344 104.519531 C 282.175781 105.25 281.351562 105.613281 280.425781 105.613281 C 279.867188 105.613281 279.402344 105.5 279.039062 105.289062 C 278.675781 105.082031 278.410156 104.746094 278.242188 104.28125 L 277.445312 108.328125 L 276.183594 108.328125 L 277.484375 101.679688 C 277.683594 100.628906 278.058594 99.789062 278.59375 99.144531 Z M 283.042969 101.609375 C 283.210938 100.683594 283.171875 99.957031 282.890625 99.425781 C 282.609375 98.90625 282.132812 98.640625 281.476562 98.640625 C 280.804688 98.640625 280.230469 98.90625 279.753906 99.425781 C 279.265625 99.957031 278.929688 100.683594 278.761719 101.609375 C 278.578125 102.53125 278.621094 103.261719 278.898438 103.792969 C 279.179688 104.324219 279.640625 104.578125 280.3125 104.578125 C 280.984375 104.578125 281.558594 104.324219 282.035156 103.792969 C 282.511719 103.261719 282.847656 102.53125 283.042969 101.609375 Z M 283.042969 101.609375 "/>
<path fill-rule="nonzero" fill="rgb(20.692444%, 48.200989%, 63.812256%)" fill-opacity="1" stroke-width="0.946573" stroke-linecap="butt" stroke-linejoin="round" stroke="rgb(100%, 100%, 100%)" stroke-opacity="1" stroke-miterlimit="10" d="M 250.761719 230.71875 C 252.328125 230.71875 253.832031 231.34375 254.941406 232.453125 C 256.050781 233.5625 256.675781 235.066406 256.675781 236.636719 C 256.675781 238.203125 256.050781 239.707031 254.941406 240.816406 C 253.832031 241.925781 252.328125 242.550781 250.761719 242.550781 C 249.191406 242.550781 247.6875 241.925781 246.578125 240.816406 C 245.46875 239.707031 244.84375 238.203125 244.84375 236.636719 C 244.84375 235.066406 245.46875 233.5625 246.578125 232.453125 C 247.6875 231.34375 249.191406 230.71875 250.761719 230.71875 Z M 250.761719 230.71875 " transform="matrix(1, 0, 0, -1, 0, 360)"/>
<g fill="rgb(14.99939%, 14.99939%, 14.99939%)" fill-opacity="1">
<use xlink:href="#glyph-4-0" x="284.846719" y="128.7275"/>
</g>
<g fill="rgb(14.99939%, 14.99939%, 14.99939%)" fill-opacity="1">
<use xlink:href="#glyph-5-0" x="293.062832" y="126.430625"/>
</g>
<g fill="rgb(14.99939%, 14.99939%, 14.99939%)" fill-opacity="1">
<use xlink:href="#glyph-5-1" x="307.52084" y="126.430625"/>
</g>
<g fill="rgb(14.99939%, 14.99939%, 14.99939%)" fill-opacity="1">
<use xlink:href="#glyph-5-2" x="316.428066" y="126.430625"/>
</g>
<g fill="rgb(14.99939%, 14.99939%, 14.99939%)" fill-opacity="1">
<use xlink:href="#glyph-5-4" x="320.878262" y="126.430625"/>
</g>
<g fill="rgb(14.99939%, 14.99939%, 14.99939%)" fill-opacity="1">
<use xlink:href="#glyph-6-0" x="329.785488" y="126.430625"/>
</g>
<g fill="rgb(14.99939%, 14.99939%, 14.99939%)" fill-opacity="1">
<use xlink:href="#glyph-6-1" x="333.675137" y="126.430625"/>
</g>
<g fill="rgb(14.99939%, 14.99939%, 14.99939%)" fill-opacity="1">
<use xlink:href="#glyph-6-4" x="338.337246" y="126.430625"/>
</g>
<g fill="rgb(14.99939%, 14.99939%, 14.99939%)" fill-opacity="1">
<use xlink:href="#glyph-6-9" x="346.123379" y="126.430625"/>
</g>
<g fill="rgb(14.99939%, 14.99939%, 14.99939%)" fill-opacity="1">
<use xlink:href="#glyph-6-10" x="357.785488" y="126.430625"/>
</g>
<g fill="rgb(14.99939%, 14.99939%, 14.99939%)" fill-opacity="1">
<use xlink:href="#glyph-6-11" x="365.571621" y="126.430625"/>
</g>
<g fill="rgb(14.99939%, 14.99939%, 14.99939%)" fill-opacity="1">
<use xlink:href="#glyph-6-6" x="368.681973" y="126.430625"/>
</g>
<g fill="rgb(14.99939%, 14.99939%, 14.99939%)" fill-opacity="1">
<use xlink:href="#glyph-6-11" x="373.344082" y="126.430625"/>
</g>
<g fill="rgb(14.99939%, 14.99939%, 14.99939%)" fill-opacity="1">
<use xlink:href="#glyph-6-12" x="376.454434" y="126.430625"/>
</g>
<g fill="rgb(14.99939%, 14.99939%, 14.99939%)" fill-opacity="1">
<use xlink:href="#glyph-6-13" x="383.454434" y="126.430625"/>
</g>
<g fill="rgb(14.99939%, 14.99939%, 14.99939%)" fill-opacity="1">
<use xlink:href="#glyph-6-14" x="391.240566" y="126.430625"/>
</g>
<g fill="rgb(14.99939%, 14.99939%, 14.99939%)" fill-opacity="1">
<use xlink:href="#glyph-6-8" x="394.350918" y="126.430625"/>
</g>
<path fill-rule="nonzero" fill="rgb(14.99939%, 14.99939%, 14.99939%)" fill-opacity="1" d="M 278.59375 120.144531 C 278.957031 119.683594 279.515625 119.25 280.300781 118.828125 C 280.59375 118.675781 281.152344 118.589844 281.992188 118.589844 C 282.917969 118.589844 283.589844 118.96875 284.039062 119.695312 C 284.472656 120.4375 284.570312 121.40625 284.347656 122.609375 C 284.109375 123.8125 283.632812 124.792969 282.902344 125.519531 C 282.175781 126.25 281.351562 126.613281 280.425781 126.613281 C 279.867188 126.613281 279.402344 126.5 279.039062 126.289062 C 278.675781 126.082031 278.410156 125.746094 278.242188 125.28125 L 277.445312 129.328125 L 276.183594 129.328125 L 277.484375 122.679688 C 277.683594 121.628906 278.058594 120.789062 278.59375 120.144531 Z M 283.042969 122.609375 C 283.210938 121.683594 283.171875 120.957031 282.890625 120.425781 C 282.609375 119.90625 282.132812 119.640625 281.476562 119.640625 C 280.804688 119.640625 280.230469 119.90625 279.753906 120.425781 C 279.265625 120.957031 278.929688 121.683594 278.761719 122.609375 C 278.578125 123.53125 278.621094 124.261719 278.898438 124.792969 C 279.179688 125.324219 279.640625 125.578125 280.3125 125.578125 C 280.984375 125.578125 281.558594 125.324219 282.035156 124.792969 C 282.511719 124.261719 282.847656 123.53125 283.042969 122.609375 Z M 283.042969 122.609375 "/>
<path fill-rule="nonzero" fill="rgb(29.214478%, 76.142883%, 67.886353%)" fill-opacity="1" stroke-width="0.946573" stroke-linecap="butt" stroke-linejoin="round" stroke="rgb(100%, 100%, 100%)" stroke-opacity="1" stroke-miterlimit="10" d="M 250.761719 209.71875 C 252.328125 209.71875 253.832031 210.34375 254.941406 211.453125 C 256.050781 212.5625 256.675781 214.066406 256.675781 215.636719 C 256.675781 217.203125 256.050781 218.707031 254.941406 219.816406 C 253.832031 220.925781 252.328125 221.550781 250.761719 221.550781 C 249.191406 221.550781 247.6875 220.925781 246.578125 219.816406 C 245.46875 218.707031 244.84375 217.203125 244.84375 215.636719 C 244.84375 214.066406 245.46875 212.5625 246.578125 211.453125 C 247.6875 210.34375 249.191406 209.71875 250.761719 209.71875 Z M 250.761719 209.71875 " transform="matrix(1, 0, 0, -1, 0, 360)"/>
<g fill="rgb(14.99939%, 14.99939%, 14.99939%)" fill-opacity="1">
<use xlink:href="#glyph-4-0" x="284.846719" y="149.7275"/>
</g>
<g fill="rgb(14.99939%, 14.99939%, 14.99939%)" fill-opacity="1">
<use xlink:href="#glyph-5-0" x="293.062832" y="147.430625"/>
</g>
<g fill="rgb(14.99939%, 14.99939%, 14.99939%)" fill-opacity="1">
<use xlink:href="#glyph-5-1" x="307.52084" y="147.430625"/>
</g>
<g fill="rgb(14.99939%, 14.99939%, 14.99939%)" fill-opacity="1">
<use xlink:href="#glyph-5-2" x="316.428066" y="147.430625"/>
</g>
<g fill="rgb(14.99939%, 14.99939%, 14.99939%)" fill-opacity="1">
<use xlink:href="#glyph-5-5" x="320.878262" y="147.430625"/>
</g>
<g fill="rgb(14.99939%, 14.99939%, 14.99939%)" fill-opacity="1">
<use xlink:href="#glyph-6-0" x="329.785488" y="147.430625"/>
</g>
<g fill="rgb(14.99939%, 14.99939%, 14.99939%)" fill-opacity="1">
<use xlink:href="#glyph-6-1" x="333.675137" y="147.430625"/>
</g>
<g fill="rgb(14.99939%, 14.99939%, 14.99939%)" fill-opacity="1">
<use xlink:href="#glyph-6-4" x="338.337246" y="147.430625"/>
</g>
<g fill="rgb(14.99939%, 14.99939%, 14.99939%)" fill-opacity="1">
<use xlink:href="#glyph-6-9" x="346.123379" y="147.430625"/>
</g>
<g fill="rgb(14.99939%, 14.99939%, 14.99939%)" fill-opacity="1">
<use xlink:href="#glyph-6-10" x="357.785488" y="147.430625"/>
</g>
<g fill="rgb(14.99939%, 14.99939%, 14.99939%)" fill-opacity="1">
<use xlink:href="#glyph-6-11" x="365.571621" y="147.430625"/>
</g>
<g fill="rgb(14.99939%, 14.99939%, 14.99939%)" fill-opacity="1">
<use xlink:href="#glyph-6-6" x="368.681973" y="147.430625"/>
</g>
<g fill="rgb(14.99939%, 14.99939%, 14.99939%)" fill-opacity="1">
<use xlink:href="#glyph-6-11" x="373.344082" y="147.430625"/>
</g>
<g fill="rgb(14.99939%, 14.99939%, 14.99939%)" fill-opacity="1">
<use xlink:href="#glyph-6-12" x="376.454434" y="147.430625"/>
</g>
<g fill="rgb(14.99939%, 14.99939%, 14.99939%)" fill-opacity="1">
<use xlink:href="#glyph-6-13" x="383.454434" y="147.430625"/>
</g>
<g fill="rgb(14.99939%, 14.99939%, 14.99939%)" fill-opacity="1">
<use xlink:href="#glyph-6-14" x="391.240566" y="147.430625"/>
</g>
<g fill="rgb(14.99939%, 14.99939%, 14.99939%)" fill-opacity="1">
<use xlink:href="#glyph-6-8" x="394.350918" y="147.430625"/>
</g>
<path fill-rule="nonzero" fill="rgb(14.99939%, 14.99939%, 14.99939%)" fill-opacity="1" d="M 278.59375 141.144531 C 278.957031 140.683594 279.515625 140.25 280.300781 139.828125 C 280.59375 139.675781 281.152344 139.589844 281.992188 139.589844 C 282.917969 139.589844 283.589844 139.96875 284.039062 140.695312 C 284.472656 141.4375 284.570312 142.40625 284.347656 143.609375 C 284.109375 144.8125 283.632812 145.792969 282.902344 146.519531 C 282.175781 147.25 281.351562 147.613281 280.425781 147.613281 C 279.867188 147.613281 279.402344 147.5 279.039062 147.289062 C 278.675781 147.082031 278.410156 146.746094 278.242188 146.28125 L 277.445312 150.328125 L 276.183594 150.328125 L 277.484375 143.679688 C 277.683594 142.628906 278.058594 141.789062 278.59375 141.144531 Z M 283.042969 143.609375 C 283.210938 142.683594 283.171875 141.957031 282.890625 141.425781 C 282.609375 140.90625 282.132812 140.640625 281.476562 140.640625 C 280.804688 140.640625 280.230469 140.90625 279.753906 141.425781 C 279.265625 141.957031 278.929688 142.683594 278.761719 143.609375 C 278.578125 144.53125 278.621094 145.261719 278.898438 145.792969 C 279.179688 146.324219 279.640625 146.578125 280.3125 146.578125 C 280.984375 146.578125 281.558594 146.324219 282.035156 145.792969 C 282.511719 145.261719 282.847656 144.53125 283.042969 143.609375 Z M 283.042969 143.609375 "/>
</svg>
